<?xml version="1.0" encoding="utf-8"?>
<!-- Generator: Adobe Illustrator 22.0.1, SVG Export Plug-In . SVG Version: 6.00 Build 0)  -->
<svg version="1.1" id="Layer_1" xmlns="http://www.w3.org/2000/svg" xmlns:xlink="http://www.w3.org/1999/xlink" x="0px" y="0px"
	 viewBox="0 0 150 150" style="enable-background:new 0 0 150 150;" xml:space="preserve">
<g id="FSlYhs_1_">
	<g>
		<path d="M122.4,47.4c0.2,6.8-1.3,13.4-4.3,19.5c-13.2,26.8-26.7,53.5-40.6,80c-0.6,1.2-0.9,3-2.3,3.1c-1.8,0.1-2-2-2.6-3.2
			C59.3,121,46,95.1,33,69.2C18.5,40.4,34.5,7,66.1,0.9C96.3-4.9,122.3,18.3,122.4,47.4z M75.1,29.4c-10.4,0-18.3,7.7-18.3,17.9
			c0,10.2,8,18.3,18.1,18.4c10.4,0.1,18.4-7.9,18.4-18.3C93.2,37,85.5,29.4,75.1,29.4z"/>
	</g>
</g>
</svg>
