<?xml version="1.0" encoding="utf-8"?>
<!-- Generator: Adobe Illustrator 22.0.1, SVG Export Plug-In . SVG Version: 6.00 Build 0)  -->
<svg version="1.1" id="Layer_1" xmlns="http://www.w3.org/2000/svg" xmlns:xlink="http://www.w3.org/1999/xlink" x="0px" y="0px"
	 viewBox="0 0 150 150" style="enable-background:new 0 0 150 150;" xml:space="preserve">
<g>
	<path d="M75,13.5c20,0,22.4,0.1,30.3,0.4c7.3,0.3,11.3,1.6,13.9,2.6c3.5,1.4,6,3,8.6,5.6c2.6,2.6,4.2,5.1,5.6,8.6
		c1,2.6,2.2,6.6,2.6,13.9c0.4,7.9,0.4,10.3,0.4,30.3s-0.1,22.4-0.4,30.3c-0.3,7.3-1.6,11.3-2.6,13.9c-1.4,3.5-3,6-5.6,8.6
		c-2.6,2.6-5.1,4.2-8.6,5.6c-2.6,1-6.6,2.2-13.9,2.6c-7.9,0.4-10.3,0.4-30.3,0.4s-22.4-0.1-30.3-0.4c-7.3-0.3-11.3-1.6-13.9-2.6
		c-3.5-1.4-6-3-8.6-5.6c-2.6-2.6-4.2-5.1-5.6-8.6c-1-2.6-2.2-6.6-2.6-13.9C13.6,97.4,13.5,95,13.5,75s0.1-22.4,0.4-30.3
		c0.3-7.3,1.6-11.3,2.6-13.9c1.4-3.5,3-6,5.6-8.6c2.6-2.6,5.1-4.2,8.6-5.6c2.6-1,6.6-2.2,13.9-2.6C52.6,13.6,55,13.5,75,13.5 M75,0
		C54.6,0,52.1,0.1,44.1,0.5c-8,0.4-13.4,1.6-18.2,3.5c-4.9,1.9-9.1,4.5-13.3,8.7c-4.2,4.2-6.7,8.4-8.7,13.3
		c-1.9,4.8-3.1,10.2-3.5,18.2C0.1,52.1,0,54.6,0,75c0,20.4,0.1,22.9,0.5,30.9c0.4,8,1.6,13.4,3.5,18.2c1.9,4.9,4.5,9.1,8.7,13.3
		c4.2,4.2,8.4,6.7,13.3,8.7c4.8,1.9,10.2,3.1,18.2,3.5c8,0.4,10.6,0.5,30.9,0.5s22.9-0.1,30.9-0.5c8-0.4,13.4-1.6,18.2-3.5
		c4.9-1.9,9.1-4.5,13.3-8.7c4.2-4.2,6.7-8.4,8.7-13.3c1.9-4.8,3.1-10.2,3.5-18.2c0.4-8,0.5-10.6,0.5-30.9s-0.1-22.9-0.5-30.9
		c-0.4-8-1.6-13.4-3.5-18.2c-1.9-4.9-4.5-9.1-8.7-13.3c-4.2-4.2-8.4-6.7-13.3-8.7c-4.8-1.9-10.2-3.1-18.2-3.5C97.9,0.1,95.4,0,75,0
		L75,0z"/>
	<path d="M75,36.5c-21.3,0-38.5,17.2-38.5,38.5s17.2,38.5,38.5,38.5s38.5-17.2,38.5-38.5S96.3,36.5,75,36.5z M75,100
		c-13.8,0-25-11.2-25-25c0-13.8,11.2-25,25-25c13.8,0,25,11.2,25,25C100,88.8,88.8,100,75,100z"/>
	<circle cx="115" cy="35" r="9"/>
</g>
</svg>
