<svg id="Layer_1" data-name="Layer 1" xmlns="http://www.w3.org/2000/svg" viewBox="0 0 150 122.33"><title>0008-twitter</title><path d="M150,28.53a64.5,64.5,0,0,1-8.65,2.81c-2.88.73-5.91,1.37-9.07,1.95a33.74,33.74,0,0,0,8.21-7.35,39.8,39.8,0,0,0,5.62-9.51q-4.76,2.16-9.73,4.32a43.09,43.09,0,0,1-10.59,3,26.48,26.48,0,0,0-9.51-7.35,30.68,30.68,0,0,0-34.15,6.48,30,30,0,0,0-9.08,22,36.79,36.79,0,0,0,.87,6.92,82.34,82.34,0,0,1-35.66-9.51A91,91,0,0,1,10.37,19.45,32.91,32.91,0,0,0,6.48,35q0,17.29,13.4,25.5A27.33,27.33,0,0,1,6.05,57.06v.43A30.07,30.07,0,0,0,13,77.17,29.68,29.68,0,0,0,30.26,87.76a28.89,28.89,0,0,1-3.67.64,40.32,40.32,0,0,1-4.54.22,23.26,23.26,0,0,1-5.19-.86,28.84,28.84,0,0,0,10.37,15.12,30.9,30.9,0,0,0,18.16,6.49,59.69,59.69,0,0,1-38,13H0a85.29,85.29,0,0,0,22.05,10.15,85.74,85.74,0,0,0,25.07,3.68q21.17,0,37.61-8a86.13,86.13,0,0,0,27.44-20.53,87,87,0,0,0,16.65-28.1,91.25,91.25,0,0,0,5.62-31.13V44.53A62.46,62.46,0,0,0,143.08,37,72.2,72.2,0,0,0,150,28.53Z" transform="translate(0 -13.83)"/></svg>