<?xml version="1.0" encoding="utf-8"?>
<!-- Generator: Adobe Illustrator 22.0.1, SVG Export Plug-In . SVG Version: 6.00 Build 0)  -->
<svg version="1.1" id="Layer_1" xmlns="http://www.w3.org/2000/svg" xmlns:xlink="http://www.w3.org/1999/xlink" x="0px" y="0px"
	 viewBox="0 0 150 150" style="enable-background:new 0 0 150 150;" xml:space="preserve">
<g>
	<path d="M25.7,0c-5.1,0-9.4,1.8-12.9,5.5c-3.5,3.7-5.2,8-5.2,13.1c0,5.1,1.7,9.4,5.2,12.9c3.5,3.5,7.8,5.2,12.9,5.2
		c5.1,0,9.4-1.7,12.9-5.2c3.5-3.5,5.2-7.8,5.2-12.9c0-5.1-1.8-9.4-5.2-13.1C35.1,1.8,30.8,0,25.7,0z"/>
	<rect x="11" y="47.6" width="29.5" height="102.4"/>
	<path d="M54.8,150h29.5V84.3c2.2-2.2,4.8-4,7.6-5.2c2.2-0.9,4.8-1.6,7.6-1.9c2.9-0.3,5.7,0.3,8.6,1.9c1.3,0.6,2.5,1.8,3.6,3.6
		c1.1,1.7,1.7,3.4,1.7,5V150h29V87.6c0-6.7-1.8-13.2-5.5-19.5c-3.7-6.3-8.5-11.3-14.5-14.8c-5.4-2.9-11.7-4.4-18.8-4.8
		c-7.1-0.3-13.6,1-19.3,3.8v-4.8H54.8V150z"/>
</g>
</svg>
