<?xml version="1.0" encoding="utf-8"?>
<!-- Generator: Adobe Illustrator 22.0.1, SVG Export Plug-In . SVG Version: 6.00 Build 0)  -->
<svg version="1.1" id="Layer_1" xmlns="http://www.w3.org/2000/svg" xmlns:xlink="http://www.w3.org/1999/xlink" x="0px" y="0px"
	 viewBox="0 0 150 150" style="enable-background:new 0 0 150 150;" xml:space="preserve">
<g>
	<path d="M0,28.8c16.8,0,32.5,3.2,47.1,9.5c14.6,6.3,27.4,15,38.5,26.1c11.1,11.1,19.8,23.9,26.1,38.5c6.3,14.6,9.5,30.3,9.5,47.1
		H150c0-20.6-3.9-40.1-11.7-58.4c-7.8-18.3-18.5-34.2-32.1-47.8C92.6,30.2,76.7,19.5,58.4,11.7C40.1,3.9,20.6,0,0,0V28.8z"/>
	<path d="M0,79.6c9.4,0,18.4,1.8,26.8,5.3c8.4,3.5,16,8.7,22.8,15.5c6.8,6.8,11.9,14.4,15.3,22.8c3.4,8.4,5.1,17.3,5.1,26.8h29.2
		c0-13.6-2.6-26.4-7.7-38.5c-5.2-12.1-12.2-22.6-21.2-31.6c-9-9-19.5-16.1-31.6-21.2C26.4,53.5,13.6,50.9,0,50.9V79.6z"/>
	<path d="M19.9,110.2c-5.6,0-10.3,1.9-14.2,5.8c-3.8,3.8-5.8,8.6-5.8,14.2c0,5.6,1.9,10.3,5.8,14.2c3.8,3.8,8.6,5.7,14.2,5.7
		c5.6,0,10.3-1.9,14.2-5.7c3.8-3.8,5.8-8.6,5.8-14.2c0-5.6-1.9-10.3-5.8-14.2C30.2,112.1,25.5,110.2,19.9,110.2z"/>
</g>
</svg>
