<?xml version="1.0" encoding="utf-8"?>
<!-- Generator: Adobe Illustrator 22.0.1, SVG Export Plug-In . SVG Version: 6.00 Build 0)  -->
<svg version="1.1" id="Layer_1" xmlns="http://www.w3.org/2000/svg" xmlns:xlink="http://www.w3.org/1999/xlink" x="0px" y="0px"
	 viewBox="0 0 150 150" style="enable-background:new 0 0 150 150;" xml:space="preserve">
<path d="M139.4,20.1C130.8,9,119.1,3.9,105,5.2c-12.6,1.2-22,7.7-29,18c-0.3,0.5-0.7,1-1,1.6c-0.4-0.6-0.7-1.1-1-1.6
	c-7-10.4-16.4-16.8-29-18C30.9,3.9,19.2,9,10.6,20.1C-0.6,34.6-2.7,50.8,3,68.1c3.8,11.6,10.5,21.4,19.5,29.5
	c17.1,15.6,34.3,31.1,51.4,46.7c0.4,0.4,0.7,0.6,1.1,0.6c0.3,0,0.6-0.2,1.1-0.6c17.1-15.6,34.3-31.1,51.4-46.7
	c9-8.2,15.6-18,19.5-29.5C152.6,50.9,150.5,34.6,139.4,20.1z M143.3,58.8c-2.3,13.9-9.5,25.3-19.9,34.7
	c-15.8,14.4-31.7,28.7-47.5,43.1c-0.4,0.3-0.7,0.5-1,0.5c-0.3,0-0.6-0.2-1-0.5c-15.8-14.4-31.7-28.7-47.5-43.1
	C16.2,84.1,9,72.7,6.7,58.8C3.9,42.1,8.6,27.7,22.2,17C33.6,8,50.8,8.8,62,18.3c4.7,4,8.2,9,10.6,14.7c0.8,1.9,1.6,3.7,2.4,5.8
	c0.9-2,1.7-3.9,2.4-5.8c2.4-5.7,5.8-10.6,10.6-14.7C99.2,8.8,116.4,8,127.8,17C141.4,27.7,146.1,42.1,143.3,58.8z"/>
</svg>
