<?xml version="1.0" encoding="utf-8"?>
<!-- Generator: Adobe Illustrator 22.0.1, SVG Export Plug-In . SVG Version: 6.00 Build 0)  -->
<svg version="1.1" id="Layer_1" xmlns="http://www.w3.org/2000/svg" xmlns:xlink="http://www.w3.org/1999/xlink" x="0px" y="0px"
	 viewBox="0 0 150 150" style="enable-background:new 0 0 150 150;" xml:space="preserve">
<path d="M145.8,57.9l-3.7-3.9c-1.6-1.7-4.4-1.3-5.5,0.7c-0.4,0.8-0.8,1.5-1.3,2.3c-1.1,1.7-2,3.9-4.4,1.4
	C117.6,44.2,104.4,30,91.1,15.9c-1.4-1.5-1.3-2.6,0.4-3.9c1-0.8,2-1.4,2.9-1.9c2.1-1,2.6-3.7,1-5.4l-3-3.2c-1.5-1.6-3.1-1.9-4.4-1.2
	c-2.8,1.4-5.5,3.2-8.1,5.4C66.5,16.8,63.1,31.3,64.6,47.6c0.6,6.5,1.8,12.9,3.1,19.3l0,0c1.9,10.8,4.1,21.6,5.7,32.4
	c1.4,9.4,1.3,18.8-3.8,27.6c-2.2,3.7-3.7,3.8-6.6,0.7c-11-12-22.2-23.9-33.3-35.8c-1.4-1.5-2.7-2.9-4.1-4.4c-1.4-1.5-1.1-4,0.6-5.2
	c6.3-4.2,8.1-3.2,14.2,3.4c3.4,3.7,6.9,7.4,10.3,11.1c4.2,4.4,8.4,8.9,12.7,13.5c2.3,2.5,6.5,0.3,5.8-3c-0.6-2.8-2-5.2-4.5-7.5
	c-4.8-4.6-9.3-9.6-14-14.7c-2.2-2.4,0-6.2,3.2-5.6c2.6,0.5,5.1,1.2,7.6,1.8c1.1,0.3,2.7,1.5,3.5-0.7c1-2.7-2.2-10.5-4.9-11.2
	c-11.5-2.7-23.1-4.2-34.6,0.2c-10,3.8-17.5,10.3-22.2,18.9c-0.7,1.3-0.5,2.9,0.5,4l3.7,3.9c1.6,1.7,4.4,1.3,5.5-0.7
	c0.4-0.8,0.8-1.5,1.3-2.3c1.1-1.7,2-3.9,4.4-1.4c13.3,14.2,26.5,28.3,39.8,42.5c1.4,1.5,1.3,2.6-0.4,3.9c-1,0.8-2,1.4-2.9,1.9
	c-2.1,1-2.6,3.7-1,5.4l3,3.2c1.5,1.6,3.1,1.9,4.4,1.2c2.8-1.4,5.5-3.2,8.1-5.4c13.2-11.1,16.7-25.5,15.2-41.9
	c-0.6-6.4-1.8-12.6-3-18.8c-1.9-11-4.2-21.8-5.8-32.8c-1.4-9.4-1.3-18.8,3.8-27.6c2.2-3.7,3.7-3.8,6.6-0.7
	c11,12,22.2,23.9,33.3,35.8c1.4,1.5,2.7,2.9,4.1,4.4c1.4,1.5,1.1,4-0.6,5.2c-6.3,4.2-8.1,3.2-14.2-3.4c-3.4-3.7-6.9-7.4-10.3-11.1
	c-4.2-4.4-8.4-8.9-12.7-13.5c-2.3-2.5-6.5-0.3-5.8,3c0.6,2.8,2,5.2,4.5,7.5c4.8,4.6,9.3,9.6,14,14.7c2.2,2.4,0,6.2-3.2,5.6
	c-2.6-0.5-5.1-1.2-7.6-1.8c-1.1-0.3-2.7-1.5-3.5,0.7c-1,2.7,2.2,10.5,4.9,11.2c11.5,2.7,23.1,4.2,34.6-0.2
	c10-3.8,17.5-10.3,22.2-18.9C147.1,60.6,146.8,58.9,145.8,57.9z"/>
</svg>
