<?xml version="1.0" encoding="utf-8"?>
<!-- Generator: Adobe Illustrator 22.0.1, SVG Export Plug-In . SVG Version: 6.00 Build 0)  -->
<svg version="1.1" id="Layer_1" xmlns="http://www.w3.org/2000/svg" xmlns:xlink="http://www.w3.org/1999/xlink" x="0px" y="0px"
	 viewBox="0 0 150 150" style="enable-background:new 0 0 150 150;" xml:space="preserve">
<style type="text/css">
	.st0{fill:#020202;}
</style>
<g>
	<path class="st0" d="M79.3,34.9c-24.1-2.1-44.7,16.8-44.7,41c0,24.1,20,42.8,43.9,41.2c23.3-1.6,41.1-23,38.1-46.3
		c-1.3-10.3-6.1-19.1-14.1-26c-2.9-2.5-6.2-3.4-9.2-0.3c-3.1,3.2-1.8,6.2,1.1,8.8c0.6,0.5,1.1,1.1,1.7,1.7
		c12,12.3,11.5,30.8-1.1,42.6c-11.6,10.8-30.5,9.9-41.4-1.9c-11.2-12.2-10.2-31,2.4-42.2c6.4-5.7,14.1-7.5,22.5-6.9
		c3.9,0.3,6.8-1.2,7.1-5.5C86.1,36.7,83.3,35.3,79.3,34.9z"/>
	<path class="st0" d="M122,75.9c0.5,3.4,2.2,5.8,5.8,5.8c3.8,0,5.7-2.5,5.9-6.3c0.1-1.2,0-2.4-0.1-3.6C129.9,28.6,83.9,4.5,46.3,26
		c-22.7,13-34.6,43.8-26,66.9c1.4,3.7,3.5,6.1,7.6,5c4.2-1.2,4.8-4.4,3.6-8.2c-1.3-4.3-1.9-8.6-1.8-12.4
		C29.7,52.6,46.6,33,69.7,30.1c23.8-3,45.4,12.1,50.9,35.6C121.4,69.1,121.5,72.5,122,75.9z"/>
	<path class="st0" d="M65.3,138.3c-1.7-0.6-3.5-0.8-5.3-1.2C16.3,126.6-2.8,74.2,24.1,38.1c2.8-3.8,6.7-7.9,1.2-11.8
		c-5.1-3.6-8,1.2-10.6,4.7c-19.5,26.4-19.6,62.9-0.1,89.2c12.1,16.2,28.2,26,46.8,29.4c4.8,0.5,7.6-0.4,8.5-4
		C70.9,141.8,68.7,139.5,65.3,138.3z"/>
	<path class="st0" d="M52.6,75.6C52.5,88.7,62.1,98.8,75,99.2c12.7,0.3,23.6-9.8,23.9-22.2c0.3-13.2-9.6-23.8-22.5-24.1
		C63,52.6,52.8,62.4,52.6,75.6z"/>
	<path class="st0" d="M150,69.9c0-8.6-2.8-16.7-6-24.5c-1.4-3.5-4.1-5.8-8.1-4.1c-3.7,1.5-3.9,4.8-2.9,8.2c0.3,1,0.7,1.9,1,2.9
		c13.9,38.2-6.8,76.4-46.3,85.1c-4.3,0.9-8.4,2.2-7.4,7.4c1,5.3,5.2,5.1,9.6,4.3c34.7-6.4,60.1-37.4,60.1-73.9
		C150,73.5,150,71.7,150,69.9z"/>
	<path class="st0" d="M42.4,21.1c0.9-0.4,1.7-1,2.6-1.5c25.9-13.3,54.2-9,75.1,11.3c3.1,3,6.3,5.9,10.3,2c4-3.9,1.3-7.2-1.8-10.3
		C116,10.1,100.9,2.9,83.3,0.8c-5.3-0.8-10.5-0.6-16,0C56.4,2,46,5.1,36.7,11c-2.9,1.8-4.3,4.5-2.6,7.7
		C35.9,22.1,38.9,22.7,42.4,21.1z"/>
	<path class="st0" d="M125.9,105.2c2.2-3.5,3.3-7.3-1.1-9.9c-4.1-2.4-6.7,0.1-8.9,3.5C100,123.5,73,129.4,48.6,113.4
		c-3.7-2.4-7-3.5-10,0.6c-3.1,4.2-0.1,6.8,2.9,9c10,7.3,21.3,11.1,35.6,11.3C97.3,133.4,114.2,123.9,125.9,105.2z"/>
</g>
</svg>
