<?xml version="1.0" encoding="utf-8"?>
<!-- Generator: Adobe Illustrator 22.0.1, SVG Export Plug-In . SVG Version: 6.00 Build 0)  -->
<svg version="1.1" id="Layer_1" xmlns="http://www.w3.org/2000/svg" xmlns:xlink="http://www.w3.org/1999/xlink" x="0px" y="0px"
	 viewBox="0 0 150 150" style="enable-background:new 0 0 150 150;" xml:space="preserve">
<style type="text/css">
	.st0{fill:none;}
</style>
<path d="M75,0C33.6,0,0,33.6,0,75s33.6,75,75,75s75-33.6,75-75S116.4,0,75,0z M75,139.3c-35.5,0-64.3-28.8-64.3-64.3
	S39.5,10.7,75,10.7s64.3,28.8,64.3,64.3S110.5,139.3,75,139.3z"/>
<g>
	<polygon class="st0" points="78.3,97.5 78,97.9 78.8,103.1 80.3,100.3 	"/>
	<path class="st0" d="M76.6,95.2L75,93.1l-1.6,2.2l1.1,1.6c0.2,0.3,0.3,0.6,0.2,1l-1.5,9.2l1.7,3.1l1.7-3.1L75.2,98
		c-0.1-0.3,0-0.7,0.2-1L76.6,95.2z"/>
	<polygon class="st0" points="76.9,91.1 77,91.2 79.3,94.4 79.3,94.4 81.8,97.8 87.7,87 84.7,85.9 	"/>
	<polygon class="st0" points="72,97.9 71.7,97.5 69.7,100.3 71.2,103.2 	"/>
	<path class="st0" d="M88.5,93.9l3.4-0.1l-2.3-4.7l-6.4,11.7l0,0l-3.1,5.6l8.7-7.9l-1.4-2.7c-0.2-0.4-0.2-0.9,0-1.3
		C87.6,94.2,88,93.9,88.5,93.9z"/>
	<path class="st0" d="M66.8,83.8l3,2l5.1,3.4l8.2-5.5v-1.3c-0.1,0.1-0.1,0.1-0.2,0.1c-0.2,0.1-0.3,0.3-0.5,0.4
		c-0.1,0.1-0.2,0.1-0.3,0.2c-0.2,0.1-0.3,0.2-0.5,0.3c-0.1,0.1-0.2,0.1-0.3,0.2c-0.2,0.1-0.4,0.2-0.5,0.3c-0.1,0-0.1,0.1-0.2,0.1
		c-0.2,0.1-0.5,0.3-0.7,0.4c-0.1,0-0.1,0.1-0.2,0.1c-0.2,0.1-0.3,0.1-0.5,0.2c-0.1,0-0.2,0.1-0.2,0.1c0.1,0.2,0,0.2-0.2,0.3
		c-0.1,0-0.2,0.1-0.2,0.1c-0.1,0-0.3,0.1-0.4,0.1s-0.1,0-0.2,0.1c-0.2,0.1-0.4,0.1-0.5,0.1l0,0c-0.2,0-0.4,0.1-0.5,0.1s-0.1,0-0.2,0
		s-0.2,0-0.3,0.1c-0.1,0-0.1,0-0.2,0s-0.2,0-0.3,0c-0.1,0-0.1,0-0.2,0s-0.2,0-0.3,0h-0.1c-0.1,0-0.2,0-0.3,0l0,0c-0.2,0-0.3,0-0.4,0
		h-0.1c-0.1,0-0.2,0-0.3,0l0,0c-0.3,0-0.5,0-0.8-0.1h-0.1c-0.3,0-0.5-0.1-0.8-0.2c-0.1,0-0.1,0-0.2-0.1c-0.3-0.1-0.6-0.2-0.8-0.3
		h-0.1c-0.3-0.1-0.5-0.2-0.8-0.4c0,0-0.1,0-0.1-0.1c-0.3-0.1-0.6-0.3-0.8-0.4c-0.1,0-0.1-0.1-0.2-0.1c-0.3-0.2-0.5-0.3-0.8-0.5
		c0,0-0.1,0-0.1-0.1c-0.2-0.2-0.5-0.3-0.7-0.5c0,0-0.1,0-0.1-0.1c-0.2-0.2-0.5-0.3-0.7-0.5c0,0,0,0-0.1,0v1.5H66.8z"/>
	<path class="st0" d="M57.9,55.4c0-0.1,0-0.2,0-0.3c1.3-6,6.6-6.7,6.9-6.8c0.1,0,0.1,0,0.2,0h5.9c0.4,0,0.8-0.1,1.2-0.2
		c0.8-0.3,2.2-0.8,4-1.4c0.4-0.1,0.7-0.2,1.1-0.3c0.1,0,0.3,0,0.4,0c0.3,0,0.5-0.1,0.8-0.1l0,0c0.2,0,0.5,0,0.7,0.1
		c0.1,0,0.2,0,0.4,0c0.4,0.1,0.7,0.2,1.1,0.3l0,0l6.2,2.2l0,0c4.9,1.8,5.4,6.4,5.5,6.6v0.1v3.6c0.3-0.5,0.5-1.1,0.5-1.7v-9.4
		c-0.1-0.5-0.8-3.8-4.2-4.6c-0.4-0.1-0.7-0.4-0.9-0.7c-0.2-0.4-0.2-0.8,0-1.1c0,0,0.5-1.1,0.1-1.9c-0.3-0.7-1.2-1-2-1.1H67.9
		c-5.8,0-10.5,4.7-10.5,10.5v7c0,0.7,0.2,1.5,0.4,2.1L57.9,55.4L57.9,55.4z"/>
	<path class="st0" d="M111.7,109L110,98.6c-0.4-2.3-2-4.3-4.2-5.1l-13.5-4.9l2.9,5.9c0.2,0.4,0.2,0.9-0.1,1.3
		c-0.2,0.4-0.7,0.6-1.1,0.6l-3.4,0.1l0.9,1.7c0.3,0.5,0.2,1.2-0.3,1.6l-12.9,11.8h31.1c0.6,0,1.3-0.3,1.7-0.8
		C111.6,110.3,111.8,109.6,111.7,109L111.7,109z"/>
	<path class="st0" d="M58.5,98.2l0.9-1.7H56c-0.5,0-0.9-0.2-1.1-0.6c-0.2-0.4-0.3-0.9-0.1-1.3l2.9-5.9l-13.5,4.9
		c-2.2,0.8-3.8,2.7-4.2,5.1L38.3,109c-0.1,0.6,0.1,1.3,0.5,1.8s1,0.8,1.7,0.8h31.1L58.7,99.8C58.3,99.4,58.2,98.7,58.5,98.2z"/>
	<path class="st0" d="M62.7,94.6c0.2,0.4,0.2,0.9,0,1.3l-1.4,2.7l8.7,7.9l-3.1-5.6l0,0l-6.4-11.7l-2.3,4.7l3.4,0.1
		C62,93.9,62.4,94.2,62.7,94.6z"/>
	<path class="st0" d="M66.1,78.7C66.1,78.7,66.2,78.7,66.1,78.7L66.1,78.7L66.1,78.7c0.5,0.4,0.9,0.7,1.4,1c2.7,2.1,5.3,3.4,6.7,3.4
		l0,0c0.1,0,0.2,0,0.2,0c0.2,0,3.6,0.4,7.1-2.8c0.7-0.6,1.4-1.2,2.2-1.7l0.1-0.1c0,0,0.1-0.1,0.2-0.1c1.4-1,4.8-4,5.5-12V55.6
		c-0.1-0.4-0.6-3.1-3.7-4.3l-6.2-2.2c-0.4-0.2-0.9-0.2-1.3-0.2S77.4,49,77,49.2c-1.3,0.5-3,1.1-4.1,1.5c-0.6,0.2-1.3,0.3-2,0.3l0,0
		h-5.8c-0.4,0.1-1.9,0.4-3.2,1.9c0,0,0,0,0,0.1c-0.1,0.1-0.2,0.2-0.3,0.4c0,0,0,0.1-0.1,0.1c-0.1,0.1-0.2,0.3-0.3,0.4
		c0,0,0,0.1-0.1,0.1c0,0-0.1,0.1-0.1,0.2v0.1c-0.2,0.3-0.3,0.7-0.4,1.2v9.1l0,0v2.1C60.5,67.1,60.9,75.2,66.1,78.7z"/>
	<path class="st0" d="M70.7,94.4L70.7,94.4L70.7,94.4L70.7,94.4L70.7,94.4L70.7,94.4l0.2-0.2l0,0l2.2-3L65.3,86l-3,1.1l5.9,10.7
		L70.7,94.4z"/>
	<path d="M114.3,108.6l-1.7-10.4c-0.5-3.3-2.8-6-5.9-7.1L90,85l0,0l0,0l-4.2-1.5v-3.1c2.2-1.6,5.6-5.4,6.3-13.7
		c0-0.1,0.6-3.5,2.3-6.2c0.6-1,0.9-2,0.9-3.2v-9.5c0-0.1,0-0.1,0-0.2c0-0.2-0.7-4.7-4.9-6.5c0.1-0.8,0.1-1.8-0.4-2.8
		c-0.7-1.3-2-2.2-4-2.6c-0.1,0-0.2,0-0.3,0H67.9c-7.3,0-13.2,5.9-13.2,13.2v7c0,1.8,0.6,3.6,1.8,5c0.6,0.7,1.2,1.9,1.4,3.7v2.1l0,0
		c0,0.4,0.3,9.3,6.3,13.7v3L60,85l0,0l0,0l-16.6,6c-3.1,1.1-5.4,3.9-5.9,7.1l-1.7,10.4c-0.2,1.4,0.2,2.9,1.1,3.9
		c0.9,1.1,2.3,1.7,3.7,1.7H75l0,0l0,0l0,0h34.5c1.4,0,2.8-0.6,3.7-1.7C114.2,111.4,114.6,110,114.3,108.6z M87.3,95.9l1.4,2.7
		l-8.7,7.9l3.1-5.6l0,0l6.4-11.7l2.3,4.7L88.4,94c-0.5,0-0.9,0.3-1.1,0.7C87.1,95,87.1,95.4,87.3,95.9z M67.6,83.1
		C67.6,83.1,67.7,83.1,67.6,83.1c0.3,0.2,0.6,0.4,0.8,0.5c0,0,0.1,0,0.1,0.1c0.3,0.2,0.5,0.3,0.8,0.5c0.1,0,0.1,0.1,0.2,0.1
		c0.3,0.2,0.5,0.3,0.8,0.4c0,0,0.1,0,0.1,0.1c0.3,0.1,0.5,0.3,0.8,0.4h0.1c0.3,0.1,0.6,0.2,0.8,0.3c0.1,0,0.1,0,0.2,0.1
		c0.3,0.1,0.6,0.1,0.8,0.2h0.1c0.3,0,0.6,0.1,0.8,0.1l0,0c0.1,0,0.2,0,0.3,0h0.1c0.1,0,0.3,0,0.4,0l0,0c0.1,0,0.2,0,0.3,0h0.1
		c0.1,0,0.2,0,0.3,0c0.1,0,0.1,0,0.2,0s0.2,0,0.3,0c0.1,0,0.1,0,0.2,0s0.2,0,0.3-0.1c0.1,0,0.1,0,0.2,0c0.2,0,0.4-0.1,0.5-0.1l0,0
		c0.2,0,0.4-0.1,0.5-0.1s0.1,0,0.2-0.1c0.1,0,0.3-0.1,0.4-0.1s0.2-0.1,0.2-0.1c0.1,0,0.3-0.1,0.4-0.2c0.1,0,0.2-0.1,0.2-0.1
		c0.2-0.1,0.3-0.1,0.5-0.2c0.1,0,0.1-0.1,0.2-0.1c0.2-0.1,0.4-0.2,0.7-0.4c0.1,0,0.1-0.1,0.2-0.1c0.2-0.1,0.4-0.2,0.5-0.3
		c0.1-0.1,0.2-0.1,0.3-0.2c0.2-0.1,0.3-0.2,0.5-0.3c0.1-0.1,0.2-0.1,0.3-0.2c0.2-0.1,0.3-0.2,0.5-0.4c0.1-0.1,0.1-0.1,0.2-0.1V84
		l-8,5.2l-5.1-3.4l-3-2v-1.2c0,0,0,0,0.1,0C67.1,82.8,67.4,82.9,67.6,83.1z M76.7,106.9L75,110l-1.7-3.1l1.5-9.2
		c0.1-0.3,0-0.7-0.2-1l-1.1-1.6l1.6-2.2l1.6,2.2l-1.1,1.6c-0.2,0.3-0.3,0.6-0.2,1L76.7,106.9z M78.8,103.1L78,97.9l0.3-0.4l2.1,2.8
		L78.8,103.1z M71.7,97.5l0.3,0.4l-0.8,5.3l-1.6-2.8L71.7,97.5z M81.8,97.8l-2.5-3.3l0,0L77,91.2l-0.1-0.1l7.8-5.2l3,1.1L81.8,97.8z
		 M57.4,56v-7c0-5.8,4.7-10.5,10.5-10.5h17.7c0.7,0.2,1.6,0.5,2,1.1c0.4,0.8-0.1,1.9-0.1,1.9c-0.2,0.4-0.2,0.8,0,1.1
		c0.2,0.4,0.5,0.6,0.9,0.7c3.4,0.8,4.1,4.1,4.2,4.6v9.4c0,0.6-0.2,1.2-0.5,1.7v-3.6v-0.1c0-0.2-0.6-4.8-5.5-6.6l0,0l-6.2-2.2l0,0
		c-0.4-0.1-0.7-0.2-1.1-0.3c-0.1,0-0.2,0-0.4,0c-0.2,0-0.5-0.1-0.7-0.1l0,0c-0.3,0-0.5,0-0.8,0.1c-0.1,0-0.3,0-0.4,0
		c-0.4,0.1-0.8,0.2-1.1,0.3c-1.8,0.7-3.2,1.2-4,1.4c-0.4,0.1-0.8,0.2-1.2,0.2h-5.9c-0.1,0-0.1,0-0.2,0c-0.2,0-5.5,0.8-6.9,6.8
		c0,0.1,0,0.2,0,0.3l0,0v2.7C57.6,57.4,57.4,56.7,57.4,56z M60.5,66.8v-2.1l0,0v-9.1c0.1-0.4,0.2-0.8,0.4-1.2v-0.1
		c0.1-0.1,0.1-0.3,0.2-0.4c0,0,0-0.1,0.1-0.1c0.1-0.1,0.2-0.3,0.3-0.4c0,0,0-0.1,0.1-0.1c0.1-0.1,0.2-0.3,0.3-0.4c0,0,0,0,0-0.1
		c1.2-1.4,2.8-1.8,3.2-1.9h5.8l0,0c0.7,0,1.3-0.1,2-0.3c1.1-0.4,2.8-1,4.1-1.5c0.4-0.2,0.9-0.2,1.3-0.3c0.4,0,0.9,0.1,1.3,0.2
		l6.2,2.2c3.1,1.1,3.6,3.9,3.7,4.3v10.9c-0.7,7.9-4.1,11-5.5,12c-0.1,0-0.1,0.1-0.2,0.1l-0.1,0.1c-0.8,0.5-1.5,1.1-2.2,1.7
		c-3.6,3.2-7,2.8-7.1,2.8s-0.2,0-0.2,0l0,0c-1.4,0-4-1.3-6.7-3.4c-0.4-0.3-0.8-0.6-1.3-0.9l0,0l0,0c0,0-0.1,0-0.1-0.1
		C60.9,75.2,60.5,67.1,60.5,66.8z M65.3,85.9l7.8,5.2l-2.2,3l0,0l-0.2,0.2l0,0l0,0l0,0l0,0l0,0l-2.5,3.3L62.3,87L65.3,85.9z
		 M60.5,89.2l6.4,11.7l0,0l3.1,5.6l-8.7-7.9l1.4-2.7c0.2-0.4,0.2-0.9,0-1.3S62,94,61.6,93.9l-3.4-0.1L60.5,89.2z M40.5,111.6
		c-0.6,0-1.3-0.3-1.7-0.8s-0.6-1.1-0.5-1.8L40,98.6c0.4-2.3,2-4.3,4.2-5.1l13.5-4.9l-2.9,5.9c-0.2,0.4-0.2,0.9,0.1,1.3
		c0.2,0.4,0.7,0.6,1.1,0.6l3.4,0.1l-0.9,1.7c-0.3,0.5-0.2,1.2,0.3,1.6l12.9,11.8H40.5z M111.2,110.8c-0.4,0.5-1,0.8-1.7,0.8H78.4
		l12.9-11.8c0.4-0.4,0.6-1.1,0.3-1.6l-0.9-1.7l3.4-0.1c0.5,0,0.9-0.2,1.1-0.6s0.3-0.9,0.1-1.3l-2.9-5.9l13.5,4.9
		c2.2,0.8,3.8,2.7,4.2,5.1l1.7,10.4l0,0C111.8,109.6,111.6,110.3,111.2,110.8z"/>
</g>
</svg>
