<?xml version="1.0" encoding="utf-8"?>
<!-- Generator: Adobe Illustrator 22.0.1, SVG Export Plug-In . SVG Version: 6.00 Build 0)  -->
<svg version="1.1" id="Layer_1" xmlns="http://www.w3.org/2000/svg" xmlns:xlink="http://www.w3.org/1999/xlink" x="0px" y="0px"
	 viewBox="0 0 150 150" style="enable-background:new 0 0 150 150;" xml:space="preserve">
<path d="M74.9,0c-41.4,0-75,33.6-75,75s33.6,75,75,75s75-33.6,75-75S116.3,0,74.9,0z M74.9,139.3c-35.5,0-64.3-28.8-64.3-64.3
	s28.8-64.3,64.3-64.3s64.3,28.8,64.3,64.3S110.4,139.3,74.9,139.3z"/>
<path d="M114.4,108.6c-0.2-3.6-1-7.1-1.5-10.7c-0.1-0.7-0.3-1.3-0.6-1.9c-1.3-2.9-3.6-4.6-6.5-5.6c-6.1-2.2-12.2-4.4-18.3-6.6
	c-1.6-0.6-2.1-2.3-0.8-3.6c3.4-3.2,5-7.3,5.5-11.8c0.3-2.7,1.1-5.3,2.5-7.7c0.7-1.1,1-2.3,1-3.7c0-2.8,0-5.6,0-8.4
	c-0.1-3-1.3-5.4-3.8-7.1c-0.5-0.4-0.9-0.7-1-1.4c-0.3-2.6-1.8-4.1-4.4-4.5c-6.9,0-13.8,0-20.6,0c-1.7,0.2-3.3,0.6-4.7,1.5
	c-4.2,2.6-6.6,6.2-6.6,11.2c0,2.5,0.1,5,0,7.4c-0.1,2,0.5,3.6,1.7,5.1c1.1,1.4,1.5,3,1.5,4.7c0,1.2,0,2.3,0.2,3.5
	c0.8,4.3,2.3,8.1,5.6,11.2c1.1,1,0.6,2.8-0.7,3.3c-6.1,2.3-12.2,4.5-18.4,6.7c-4.4,1.5-6.8,4.4-7.3,9c-0.4,3-1,6.1-1.3,9.1
	c0,0.6,0,1.1,0,1.7c0.4,2.1,1.4,3.6,3.6,4.1c23.8,0,47.7,0,71.5,0c2.1-0.4,3.4-1.7,3.8-3.8c0-0.5,0-1,0-1.4
	C114.4,108.9,114.4,108.8,114.4,108.6z M91.3,93.2c0.4,0.7,0,0.8-0.6,0.8c-0.8,0-1.5,0-2.3,0.1c-1.1,0.1-1.6,0.8-1.3,1.9
	c0.1,0.2,0.2,0.4,0.3,0.5c1.1,2.2,1.1,2.2-0.7,3.9c-2.1,1.9-4.1,3.7-6.4,5.5c3-5.4,6-10.9,9-16.5C90.1,90.8,90.7,92,91.3,93.2z
	 M57.4,56.5c0.1-3.1-0.4-6.3,0.2-9.4c0.9-4.9,5.2-8.4,10.2-8.4c5.6,0,11.3,0,16.9,0c2.5,0,3.1,0.8,2.6,3.2c-0.2,0.9,0.2,1.4,1,1.6
	c2.9,1,4.2,2.8,4.2,5.9c0,2.4,0,4.9,0,7.3c0,0.6,0,1.2-0.5,1.8c0-0.7,0-1.4,0-2.1c0.1-2.8-1.1-5.1-3.5-6.5c-3-1.8-6.4-2.9-9.9-3.6
	c-1-0.2-2-0.1-2.9,0.4c-2.9,1.4-5.9,1.9-9.1,1.6C61.5,47.6,57.4,51.9,57.4,56.5z M60.7,69.1c-0.5-2.5-0.1-4.9-0.2-7c0-2.2,0-4,0-5.8
	c0-2.6,2.6-5.2,5.2-5.3c0.6,0,1.1,0,1.7,0c3.3,0.3,6.3-0.3,9.3-1.7c1.1-0.5,2.2-0.5,3.3-0.1c1.9,0.7,3.8,1.4,5.7,2.1
	c2.5,0.9,3.8,2.7,3.7,5.4c0,3.6,0.2,7.2-0.1,10.8c-0.4,3.7-1.4,7.3-4.2,9.9c-1.7,1.6-3.6,3.1-5.7,4.4c-2.9,1.7-5.8,1.9-8.7,0.1
	c-1.9-1.2-3.8-2.4-5.5-3.9C62.4,75.7,61.4,72.5,60.7,69.1z M82.4,84.4c-2.3,1.5-4.6,2.9-6.8,4.4c-0.5,0.3-0.8,0.3-1.3,0
	c-2.2-1.5-4.5-3-6.8-4.5C67,84,66.7,83.6,67,82.8c5.3,4.4,10.5,4.4,15.8,0.1C83,83.7,82.9,84.1,82.4,84.4z M60.4,89.4
	c3,5.5,6,10.9,9,16.3l-0.2,0.2c-2.5-2.3-5-4.6-7.5-6.8c-0.3-0.3-0.3-0.6-0.1-0.9c0.3-0.6,0.7-1.3,1-1.9c0.6-1.3,0.1-2.2-1.4-2.3
	c-0.9-0.1-1.9-0.1-3-0.1C59,92.3,59.6,91,60.4,89.4z M70.2,111.6c-9.7,0-19.4,0-29.1,0c-2.2,0-3-0.9-2.7-3.1
	c0.5-3.4,1.1-6.8,1.7-10.1c0.4-2.1,1.6-3.7,3.6-4.5c4.5-1.8,9.1-3.4,13.9-5.1c-1,2-1.8,3.7-2.7,5.4c-0.7,1.5-0.2,2.3,1.4,2.3
	c0.9,0,1.8,0,2.7,0c0.1,0.2,0.1,0.3,0.1,0.4c-1.4,2.6-1.1,2.4,0.8,4.2c3.6,3.3,7.2,6.6,10.8,9.9c0.2,0.2,0.5,0.3,0.5,0.6
	C70.9,111.7,70.5,111.6,70.2,111.6z M71.2,102.8c-1.9-1.5-1.8-2.4,0.7-4.9C71.6,99.5,71.4,101.1,71.2,102.8z M72.7,91.6
	c-1.5,2-3,3.9-4.5,6c-1.9-3.5-3.8-6.7-5.6-10c-0.1-0.2-0.2-0.3-0.1-0.5c0.4-0.5,2.8-1,3.4-0.6c2.1,1.4,4.3,2.8,6.4,4.2
	C72.6,90.9,73.1,91,72.7,91.6z M74.9,109.8c-0.9-1.5-1.9-2.8-1.3-4.9c0.6-2.2,0.7-4.5,1.1-6.7c0.1-0.8,0-1.4-0.5-2
	c-0.8-0.8-0.7-1.5,0.1-2.2c0.3-0.3,0.5-0.6,0.7-1c0.2,0.3,0.4,0.6,0.7,0.9c0.8,0.8,0.9,1.6,0.1,2.4c-0.5,0.5-0.5,1-0.4,1.7
	c0.3,2,0.4,4.1,0.9,6.1C76.7,106.3,76.3,108.2,74.9,109.8z M77.4,90.8c2.3-1.5,4.5-3,6.8-4.5c0.3-0.2,0.6-0.3,0.9-0.1
	c0.8,0.3,1.6,0.6,2.5,0.9c-2,3.6-3.9,7.1-5.8,10.6c-1.7-2-3.1-4.1-4.6-6.2C76.9,91.2,77.1,91,77.4,90.8z M78.2,97.8
	c0.8,0.7,1.6,1.5,1.8,2.5c0.3,1-0.8,1.7-1.3,2.9c-0.3-2-0.6-3.6-0.8-5.2L78.2,97.8z M108.8,111.6c-9.7,0-19.3,0-29,0
	c-0.3,0-0.7,0-1.3,0c2.8-2.6,5.4-5,8-7.4c1.4-1.3,2.8-2.5,4.2-3.8c1.3-1.2,1.3-1.4,0.5-3c-0.1-0.2-0.2-0.5-0.4-0.9
	c1,0,1.9-0.1,2.9-0.1c1.6,0,2.1-0.9,1.4-2.4c-0.8-1.7-1.7-3.4-2.6-5.4c4.6,1.7,9,3.2,13.3,4.8c2.4,0.9,3.8,2.6,4.2,5.1
	c0.6,3.3,1.1,6.5,1.6,9.8C111.9,110.6,111,111.6,108.8,111.6z"/>
</svg>
