<?xml version="1.0" encoding="utf-8"?>
<!-- Generator: Adobe Illustrator 22.0.1, SVG Export Plug-In . SVG Version: 6.00 Build 0)  -->
<svg version="1.1" id="Layer_1" xmlns="http://www.w3.org/2000/svg" xmlns:xlink="http://www.w3.org/1999/xlink" x="0px" y="0px"
	 viewBox="0 0 150 150" style="enable-background:new 0 0 150 150;" xml:space="preserve">
<g>
	<path d="M75,0C33.6,0,0,33.6,0,75s33.6,75,75,75s75-33.6,75-75S116.4,0,75,0z M75,139.3c-35.5,0-64.3-28.8-64.3-64.3
		S39.5,10.7,75,10.7s64.3,28.8,64.3,64.3S110.5,139.3,75,139.3z"/>
	<g>
		<path d="M62.3,80.3c0,0-3.5,0-3.6,0c-0.4,0-0.9,0.2-1.2,0.5L47,91.4V82c-0.1-1-0.9-1.7-1.9-1.7h-5.3c-0.4,0-0.7-0.3-0.7-0.7V47.7
			c0-0.4,0.3-0.7,0.7-0.7H93c0.4,0,0.7,0.3,0.7,0.7v12.2c0,1,0.8,1.9,1.9,1.9c1,0,1.9-0.8,1.9-1.9V47.7c0-2.5-2-4.5-4.5-4.5H39.8
			c-2.5,0-4.5,2-4.5,4.5v31.9c0,2.5,2,4.5,4.5,4.5h3.5V96c0,0.8,0.5,1.4,1.2,1.7c0.2,0.1,0.5,0.1,0.7,0.1c0.5,0,1-0.2,1.3-0.5
			l13.2-13.2h2.7c1,0,1.9-0.8,1.9-1.9C64.2,81.2,63.3,80.3,62.3,80.3z"/>
		<path d="M110.2,66.1H72.9c-2.5,0-4.5,2-4.5,4.5v21.8c0,2.5,2,4.5,4.5,4.5h23.3l9.4,9.4c0.4,0.4,0.8,0.5,1.3,0.5
			c0.2,0,0.5,0,0.7-0.1c0.7-0.3,1.2-1,1.2-1.7v-8.1h1.3c2.5,0,4.5-2,4.5-4.5V70.6C114.7,68.1,112.7,66.1,110.2,66.1z M110.9,92.3
			c0,0.4-0.3,0.7-0.7,0.7H107c-1,0-1.8,0.8-1.9,1.7v5.6l-6.8-6.8l0,0c0,0-0.1,0-0.1-0.1c-0.3-0.3-0.8-0.5-1.2-0.5H72.9
			c-0.4,0-0.7-0.3-0.7-0.7V70.6c0-0.4,0.3-0.7,0.7-0.7h37.3c0.4,0,0.7,0.3,0.7,0.7C110.9,70.6,110.9,92.3,110.9,92.3z"/>
		<path d="M91.6,79.6c-1,0-1.9,0.8-1.9,1.9s0.8,1.9,1.9,1.9c1,0,1.9-0.8,1.9-1.9S92.6,79.6,91.6,79.6z"/>
		<path d="M49.4,55.6c-1,0-1.9,0.8-1.9,1.9c0,1,0.8,1.9,1.9,1.9h34.1c1,0,1.9-0.8,1.9-1.9c0-1-0.8-1.9-1.9-1.9H49.4z"/>
		<path d="M62.3,67.9H49.4c-1,0-1.9,0.8-1.9,1.9s0.8,1.9,1.9,1.9h12.9c1,0,1.9-0.8,1.9-1.9S63.3,67.9,62.3,67.9z"/>
		<path d="M82.9,79.6c-1,0-1.9,0.8-1.9,1.9s0.8,1.9,1.9,1.9c1,0,1.9-0.8,1.9-1.9S83.9,79.6,82.9,79.6z"/>
		<path d="M100.3,79.6c-1,0-1.9,0.8-1.9,1.9s0.8,1.9,1.9,1.9c1,0,1.9-0.8,1.9-1.9S101.3,79.6,100.3,79.6z"/>
	</g>
</g>
</svg>
