<?xml version="1.0" encoding="utf-8"?>
<!-- Generator: Adobe Illustrator 22.0.1, SVG Export Plug-In . SVG Version: 6.00 Build 0)  -->
<svg version="1.1" id="Layer_1" xmlns="http://www.w3.org/2000/svg" xmlns:xlink="http://www.w3.org/1999/xlink" x="0px" y="0px"
	 viewBox="0 0 150 150" style="enable-background:new 0 0 150 150;" xml:space="preserve">
<g>
	<path d="M75,0C33.6,0,0,33.6,0,75s33.6,75,75,75s75-33.6,75-75S116.4,0,75,0z M75,139.3c-35.5,0-64.3-28.8-64.3-64.3
		S39.5,10.7,75,10.7s64.3,28.8,64.3,64.3S110.5,139.3,75,139.3z"/>
	<g>
		<path d="M84,103h-7c-1,0-1.8,0.8-1.8,1.8s0.8,1.8,1.8,1.8h7c1.1,0,2,0.9,2,2s-0.9,2-2,2H65c-2.8,0-5.5-1.3-7.3-3.4l-4.5-5.4
			c-2.4-2.9-6-4.6-9.7-4.7V86.3h6.7c3.3,0,6.4,1.3,8.8,3.5l9.8,9.4c0.7,0.7,0.7,1.8,0.1,2.5c-0.7,0.7-1.8,0.8-2.5,0.1l-7.7-7
			c-0.7-0.7-1.9-0.6-2.6,0.1c-0.7,0.7-0.6,1.9,0.1,2.6l7.7,7c1,0.9,2.3,1.4,3.7,1.4c1.5,0,2.9-0.6,4-1.7c2-2.1,1.9-5.5-0.2-7.6
			l-9.8-9.4c-3-2.9-7.1-4.6-11.3-4.6h-7c-0.7-1.6-2.3-2.7-4.1-2.7h-8.5c-1,0-1.8,0.8-1.8,1.8V95c0,1,0.8,1.8,1.8,1.8
			s1.8-0.8,1.8-1.8V83.5h6.7c0.5,0,0.9,0.4,0.9,0.9v14.5c0,0.5-0.4,0.9-0.9,0.9h-1.9c-1,0-1.8,0.8-1.8,1.8s0.8,1.8,1.8,1.8h1.9
			c1.9,0,3.5-1.2,4.2-2.8c2.8,0,5.5,1.3,7.3,3.4l4.5,5.4c2.5,3,6.2,4.7,10.1,4.7H84c3.1,0,5.6-2.5,5.6-5.6S87.1,103,84,103z"/>
		<path d="M119.6,52.5c-1,0-1.8,0.8-1.8,1.8v12.2h-6.7c-0.5,0-0.9-0.4-0.9-0.9V51.1c0-0.5,0.4-0.9,0.9-0.9h1.7c1,0,1.8-0.8,1.8-1.8
			s-0.8-1.8-1.8-1.8h-1.7c-1.9,0-3.5,1.2-4.2,2.8c-2.8,0-5.5-1.3-7.3-3.4l-4.5-5.4c-2.5-3-6.2-4.7-10.1-4.7H66
			c-3.1,0-5.6,2.5-5.6,5.6S62.9,47,66,47h7.7c1,0,1.8-0.8,1.8-1.8s-0.8-1.8-1.8-1.8H66c-1.1,0-2-0.9-2-2s0.9-2,2-2h19
			c2.8,0,5.5,1.3,7.3,3.4l4.5,5.4c2.4,2.9,6,4.6,9.7,4.7v10.7h-6.7c-3.3,0-6.4-1.3-8.8-3.5l-9.8-9.4c-0.7-0.7-0.7-1.8-0.1-2.5
			c0.7-0.7,1.8-0.8,2.5-0.1l7.7,7c0.7,0.7,1.9,0.6,2.6-0.1c0.7-0.7,0.6-1.9-0.1-2.6l-7.7-7c-2.2-2-5.6-1.9-7.6,0.3
			c-2,2.1-1.9,5.5,0.2,7.6l9.8,9.4c3,2.9,7.1,4.6,11.3,4.6h7c0.7,1.6,2.3,2.7,4.1,2.7h8.5c1,0,1.8-0.8,1.8-1.8v-14
			C121.4,53.3,120.6,52.5,119.6,52.5z"/>
		<path d="M84.7,96.5c-0.9,0.4-1.3,1.5-0.9,2.4c0.3,0.7,1,1.1,1.7,1.1c0.2,0,0.5,0,0.7-0.2l0,0c0.9-0.4,1.3-1.5,0.9-2.4
			C86.7,96.5,85.6,96.1,84.7,96.5z"/>
		<path d="M89.1,94c-0.8,0.6-1,1.7-0.4,2.5c0.4,0.5,0.9,0.7,1.5,0.7c0.4,0,0.7-0.1,1.1-0.4l0,0c0.8-0.6,1-1.7,0.4-2.5
			C91,93.6,89.9,93.4,89.1,94z"/>
		<path d="M79.9,98c-1,0.2-1.6,1.1-1.4,2.1c0.2,0.9,0.9,1.5,1.8,1.5c0.1,0,0.2,0,0.3,0c0,0,0,0,0.1,0c1-0.2,1.6-1.2,1.4-2.1
			C81.8,98.5,80.9,97.8,79.9,98z"/>
		<path d="M95.4,90.4c-0.7-0.7-1.9-0.6-2.6,0.1l0,0c-0.7,0.8-0.6,1.9,0.2,2.6c0.3,0.3,0.8,0.4,1.2,0.4c0.5,0,1-0.2,1.4-0.6
			C96.2,92.2,96.2,91.1,95.4,90.4z M94.4,91.9l-0.2-0.2L94.4,91.9L94.4,91.9z"/>
		<path d="M100,80.6c-1-0.3-2,0.3-2.3,1.2c-0.3,1,0.2,2,1.2,2.3c0.2,0.1,0.4,0.1,0.5,0.1c0.8,0,1.5-0.5,1.7-1.3l0,0
			C101.5,81.9,101,80.9,100,80.6z"/>
		<path d="M102.3,71.2c-0.2-1-1.2-1.6-2.1-1.4c-1,0.2-1.6,1.2-1.4,2.1s0.9,1.5,1.8,1.5c0.1,0,0.2,0,0.3,0
			C101.9,73.2,102.5,72.2,102.3,71.2L102.3,71.2z"/>
		<path d="M100.7,75.2c-1-0.1-1.9,0.6-2,1.6v0.1c-0.1,1,0.7,1.9,1.7,1.9h0.1c0.9,0,1.7-0.7,1.8-1.7S101.7,75.3,100.7,75.2z"/>
		<path d="M98.2,85.8c-0.9-0.5-2-0.2-2.5,0.7l0,0c-0.5,0.9-0.2,2,0.7,2.5c0.3,0.2,0.6,0.2,0.9,0.2c0.6,0,1.3-0.3,1.6-0.9l-1.6-0.9
			l1.6,0.9C99.4,87.4,99.1,86.2,98.2,85.8z"/>
		<path d="M63.7,53.9c0.3,0,0.6-0.1,0.8-0.2c0.9-0.4,1.3-1.5,0.8-2.4c-0.4-0.9-1.5-1.3-2.4-0.8l0,0c-0.9,0.4-1.3,1.5-0.8,2.4
			C62.4,53.5,63.1,53.9,63.7,53.9z"/>
		<path d="M68.8,52c0.1,0,0.3,0,0.5-0.1c1-0.2,1.6-1.2,1.3-2.2c-0.2-1-1.2-1.6-2.2-1.3l0,0c-1,0.2-1.6,1.2-1.3,2.2
			C67.3,51.4,68,52,68.8,52z"/>
		<path d="M59.2,56.8c0.4,0,0.8-0.1,1.1-0.4l0,0c0.8-0.6,0.9-1.8,0.3-2.5c-0.6-0.8-1.8-0.9-2.5-0.3l1.1,1.4L58,53.6
			c-0.8,0.6-0.9,1.8-0.3,2.5C58.1,56.6,58.6,56.8,59.2,56.8z"/>
		<path d="M50,70.3c0.1,0,0.3,0.1,0.4,0.1c0.8,0,1.6-0.6,1.8-1.4c0.2-1-0.3-1.9-1.3-2.2c-1-0.3-2,0.3-2.2,1.3v0.1
			C48.4,69.1,49,70,50,70.3z"/>
		<path d="M49.6,75.7L49.6,75.7c1,0,1.8-0.8,1.9-1.7c0-1-0.7-1.8-1.7-1.9s-1.9,0.7-1.9,1.7c0,0,0,0,0,0.1
			C47.8,74.8,48.6,75.7,49.6,75.7z"/>
		<path d="M51.5,65c0.3,0.1,0.5,0.2,0.8,0.2c0.7,0,1.3-0.4,1.6-1c0.5-0.9,0.1-2-0.8-2.4c-0.9-0.5-2-0.1-2.4,0.8v0.1
			C50.3,63.5,50.6,64.6,51.5,65z"/>
		<path d="M54.2,60.3c0.3,0.3,0.7,0.4,1.1,0.4c0.5,0,1.1-0.2,1.4-0.7c0.6-0.8,0.5-1.9-0.2-2.5c-0.8-0.6-1.9-0.5-2.6,0.2l0,0
			C53.3,58.5,53.4,59.6,54.2,60.3z"/>
		<path d="M49.7,77.5c-1,0.2-1.6,1.1-1.5,2.1l0,0c0.2,0.9,0.9,1.5,1.8,1.5c0.1,0,0.2,0,0.3,0c1-0.2,1.6-1.1,1.5-2.1
			C51.6,78,50.7,77.4,49.7,77.5z"/>
		<path d="M63.6,80.1C63.6,80.1,63.7,80.1,63.6,80.1L74,88.3c0.3,0.3,0.7,0.4,1.1,0.4s0.8-0.1,1.1-0.4L87,79.7
			c0.1,0,0.1-0.1,0.2-0.1c1.6-1.6,2.5-3.7,2.5-6c0-4.6-3.8-8.4-8.4-8.4c-2.4,0-4.5,1-6.1,2.6c-1.6-1.6-3.7-2.6-6.1-2.6
			c-4.6,0-8.4,3.8-8.4,8.4C60.6,76.2,61.7,78.5,63.6,80.1z M69,68.9c1.9,0,3.7,1.2,4.4,3c0.3,0.7,0.9,1.1,1.7,1.1
			c0.7,0,1.4-0.4,1.7-1.1c0.7-1.8,2.5-3,4.4-3c2.6,0,4.8,2.1,4.8,4.8c0,1.3-0.5,2.4-1.3,3.3l-9.6,7.6l-9.2-7.3
			c-1.1-0.9-1.7-2.3-1.7-3.7C64.2,71,66.4,68.9,69,68.9z"/>
		<circle cx="30.4" cy="101.6" r="1.8"/>
		<circle cx="119.6" cy="48.4" r="1.8"/>
	</g>
</g>
</svg>
