<?xml version="1.0" encoding="utf-8"?>
<!-- Generator: Adobe Illustrator 22.0.1, SVG Export Plug-In . SVG Version: 6.00 Build 0)  -->
<svg version="1.1" id="Layer_1" xmlns="http://www.w3.org/2000/svg" xmlns:xlink="http://www.w3.org/1999/xlink" x="0px" y="0px"
	 viewBox="0 0 150 150" style="enable-background:new 0 0 150 150;" xml:space="preserve">
<g>
	<path d="M75,0C33.6,0,0,33.6,0,75s33.6,75,75,75s75-33.6,75-75S116.4,0,75,0z M75,139.3c-35.5,0-64.3-28.8-64.3-64.3
		S39.5,10.7,75,10.7s64.3,28.8,64.3,64.3S110.5,139.3,75,139.3z"/>
	<g>
		<path d="M70.4,61l-8.8,8.8l-3.4-3.5c-1-1-2.7-1-3.8,0c-1,1-1,2.7,0,3.8l5.3,5.3c0.5,0.5,1.2,0.8,1.9,0.8s1.4-0.3,1.9-0.8
			l10.7-10.7c1-1,1-2.7,0-3.8C73.2,59.9,71.5,59.9,70.4,61z"/>
		<path d="M70.4,82.3l-8.8,8.8l-3.4-3.4c-1-1-2.7-1-3.8,0c-1,1-1,2.7,0,3.8l5.3,5.3c0.5,0.5,1.2,0.8,1.9,0.8s1.4-0.3,1.9-0.8
			l10.7-10.7c1-1,1-2.7,0-3.8S71.5,81.3,70.4,82.3z"/>
		<path d="M80.3,68.2c0,1.5,1.2,2.7,2.7,2.7h10.7c1.5,0,2.7-1.2,2.7-2.7s-1.2-2.7-2.7-2.7H83C81.5,65.5,80.3,66.7,80.3,68.2z"/>
		<path d="M93.7,86.9H83c-1.5,0-2.7,1.2-2.7,2.7s1.2,2.7,2.7,2.7h10.7c1.5,0,2.7-1.2,2.7-2.7C96.3,88.1,95.1,86.9,93.7,86.9z"/>
		<path d="M88.3,33.5h-5.8c-1.1-3.1-4.1-5.3-7.5-5.3s-6.4,2.2-7.5,5.3h-5.8c-1.5,0-2.7,1.2-2.7,2.7v2.7H48.3c-2.9,0-5.3,2.4-5.3,5.3
			v64c0,2.9,2.4,5.3,5.3,5.3h53.3c2.9,0,5.3-2.4,5.3-5.3v-64c0-2.9-2.4-5.3-5.3-5.3H91v-2.7C91,34.7,89.8,33.5,88.3,33.5z
			 M64.3,38.9h5.3c1.5,0,2.7-1.2,2.7-2.7s1.2-2.7,2.7-2.7s2.7,1.2,2.7,2.7s1.2,2.7,2.7,2.7h5.3v5.3H64.3V38.9z M101.7,44.2v64H48.3
			v-64H59v2.7c0,1.5,1.2,2.7,2.7,2.7h26.7c1.5,0,2.7-1.2,2.7-2.7v-2.7C91.1,44.2,101.7,44.2,101.7,44.2z"/>
	</g>
</g>
</svg>
