<?xml version="1.0" encoding="utf-8"?>
<!-- Generator: Adobe Illustrator 22.0.1, SVG Export Plug-In . SVG Version: 6.00 Build 0)  -->
<svg version="1.1" id="Layer_1" xmlns="http://www.w3.org/2000/svg" xmlns:xlink="http://www.w3.org/1999/xlink" x="0px" y="0px"
	 viewBox="0 0 150 150" style="enable-background:new 0 0 150 150;" xml:space="preserve">
<g>
	<path d="M75,0C33.6,0,0,33.6,0,75s33.6,75,75,75s75-33.6,75-75S116.4,0,75,0z M75,139.3c-35.5,0-64.3-28.8-64.3-64.3
		S39.5,10.7,75,10.7s64.3,28.8,64.3,64.3S110.5,139.3,75,139.3z"/>
	<g>
		<path d="M111.5,53.8c0-2.3-0.1-4.6-0.1-6.7c0-1.7-1.4-3-3-3c-13,0-22.9-3.7-31.2-11.8c-1.2-1.2-3.1-1.2-4.2,0
			C64.6,40.2,54.7,44,41.7,44c-1.7,0-3,1.4-3,3c0,2.1,0,4.4-0.1,6.7c-0.4,21.9-1,51.8,35.5,64.4c0.3,0.1,0.7,0.2,1,0.2
			s0.7-0.1,1-0.2C112.4,105.6,111.9,75.6,111.5,53.8L111.5,53.8z M75,112.1c-31.3-11.4-30.8-36.2-30.4-58.2c0-1.3,0-2.6,0.1-3.9
			c12.2-0.5,22-4.2,30.3-11.5c8.4,7.3,18.1,11,30.3,11.5c0,1.3,0,2.5,0.1,3.8C105.8,75.8,106.3,100.7,75,112.1L75,112.1z"/>
		<path d="M85.5,64.3L70.8,79l-6.3-6.3c-1.2-1.2-3.1-1.2-4.3,0s-1.2,3.1,0,4.3l8.4,8.4c0.6,0.6,1.4,0.9,2.2,0.9
			c0.8,0,1.6-0.3,2.2-0.9l16.9-16.9c1.2-1.2,1.2-3.1,0-4.3C88.6,63.1,86.7,63.1,85.5,64.3L85.5,64.3z"/>
	</g>
</g>
</svg>
