<?xml version="1.0" encoding="utf-8"?>
<!-- Generator: Adobe Illustrator 22.0.1, SVG Export Plug-In . SVG Version: 6.00 Build 0)  -->
<svg version="1.1" id="Layer_1" xmlns="http://www.w3.org/2000/svg" xmlns:xlink="http://www.w3.org/1999/xlink" x="0px" y="0px"
	 viewBox="0 0 150 150" style="enable-background:new 0 0 150 150;" xml:space="preserve">
<g>
	<path d="M75,0C33.6,0,0,33.6,0,75s33.6,75,75,75s75-33.6,75-75S116.4,0,75,0z M75,139.3c-35.5,0-64.3-28.8-64.3-64.3
		S39.5,10.7,75,10.7s64.3,28.8,64.3,64.3S110.5,139.3,75,139.3z"/>
	<g>
		<path d="M75.2,42.7c0,4.6-3.7,8.3-8.3,8.3c-4.6,0-8.4-3.7-8.4-8.3s3.7-8.3,8.4-8.3C71.5,34.4,75.2,38.2,75.2,42.7L75.2,42.7z
			 M67.1,110.2c-11,0-20-9-20-20c0-7.4,4.1-13.9,10.1-17.3v-6c-9.1,3.8-15.5,12.8-15.5,23.3c0,14,11.4,25.3,25.3,25.3
			c9.3,0,17.3-5.1,21.7-12.5L86,96.2C83.5,104.3,76.1,110.2,67.1,110.2L67.1,110.2z M104.2,98.1h-6c0,0-3.7-10.4-4.7-13.1
			c-0.7-1.8-2.4-3.1-4.4-3.1H74.6V71.6h13.8c1.8,0,3.3-1.5,3.3-3.3c0-1.9-1.5-3.4-3.3-3.4H74.6c0,0-0.8-12.1-7.7-12.1
			c-4.7,0-6.3,3.8-6.3,8.5v21.4c0,4.7,3.8,8.5,8.5,8.5c0.1,0,0.3-0.1,0.4-0.1s0.2,0.1,0.4,0.1h17.8l5.9,14.8h10.6c2.2,0,4-1.8,4-4
			C108.2,99.9,106.5,98.1,104.2,98.1L104.2,98.1z"/>
	</g>
</g>
</svg>
