<?xml version="1.0" encoding="utf-8"?>
<!-- Generator: Adobe Illustrator 22.0.1, SVG Export Plug-In . SVG Version: 6.00 Build 0)  -->
<svg version="1.1" id="Layer_1" xmlns="http://www.w3.org/2000/svg" xmlns:xlink="http://www.w3.org/1999/xlink" x="0px" y="0px"
	 viewBox="0 0 150 150" style="enable-background:new 0 0 150 150;" xml:space="preserve">
<g>
	<path d="M75,0C33.6,0,0,33.6,0,75s33.6,75,75,75s75-33.6,75-75S116.4,0,75,0z M75,139.3c-35.5,0-64.3-28.8-64.3-64.3
		S39.5,10.7,75,10.7s64.3,28.8,64.3,64.3S110.5,139.3,75,139.3z"/>
	<g>
		<path d="M54.6,66.1c1.6,0,3.1-0.7,4.2-2.1c0.5-0.6,0.4-1.4-0.2-1.9c-0.6-0.5-1.4-0.4-1.9,0.2c-0.6,0.7-1.3,1.1-2.1,1.1
			s-1.5-0.4-2.1-1.1c-0.5-0.6-1.3-0.7-1.9-0.2s-0.7,1.3-0.2,1.9C51.5,65.4,53.1,66.1,54.6,66.1z"/>
		<path d="M48.4,58.3c0.7,0,1.3-0.6,1.3-1.3v-1.6c0-0.7-0.6-1.3-1.3-1.3S47,54.7,47,55.4V57C47,57.7,47.6,58.3,48.4,58.3z"/>
		<path d="M60.9,58.3c0.7,0,1.3-0.6,1.3-1.3v-1.6c0-0.7-0.6-1.3-1.3-1.3s-1.3,0.6-1.3,1.3V57C59.6,57.7,60.2,58.3,60.9,58.3z"/>
		<path d="M38.6,84.6c-0.3-0.7-1.1-0.9-1.8-0.6s-0.9,1.1-0.6,1.8l3,6v24.7c0,0.7,0.6,1.3,1.3,1.3s1.3-0.6,1.3-1.3V91.4
			c0-0.2,0-0.4-0.1-0.6L38.6,84.6z"/>
		<path d="M72.5,84c-0.7-0.3-1.4-0.1-1.8,0.6l-3.1,6.3c-0.1,0.2-0.1,0.4-0.1,0.6v25.1c0,0.7,0.6,1.3,1.3,1.3c0.7,0,1.3-0.6,1.3-1.3
			V91.8l3-6C73.4,85.1,73.1,84.3,72.5,84z"/>
		<path d="M101.1,71.9c0.5-0.6,0.4-1.4-0.2-1.9s-1.4-0.4-1.9,0.2c-0.6,0.7-1.3,1.1-2.1,1.1s-1.5-0.4-2.1-1.1
			c-0.5-0.6-1.3-0.7-1.9-0.2s-0.7,1.3-0.2,1.9c1.1,1.3,2.6,2.1,4.2,2.1S100,73.2,101.1,71.9z"/>
		<path d="M90.7,61.9c-0.7,0-1.3,0.6-1.3,1.3v1.6c0,0.7,0.6,1.3,1.3,1.3c0.7,0,1.3-0.6,1.3-1.3v-1.6C92,62.5,91.4,61.9,90.7,61.9z"
			/>
		<path d="M103.2,66.1c0.7,0,1.3-0.6,1.3-1.3v-1.6c0-0.7-0.6-1.3-1.3-1.3c-0.7,0-1.3,0.6-1.3,1.3v1.6
			C101.9,65.5,102.5,66.1,103.2,66.1z"/>
		<path d="M116.4,89l-10.7-4.3c-0.7-0.3-1.1-0.9-1.1-1.7v-3.3c0.7-0.4,1.4-0.9,2.1-1.4c2.7-2.2,4.6-5.2,5.4-8.6
			c0.3-1.1,0.4-2.3,0.4-3.4c0-7.7-5.6-8.8-11-9.9c-3.5-0.7-7-1.4-9.9-3.7c-0.3-0.2-0.7-0.3-1.1-0.3c-0.4,0.1-0.7,0.3-0.9,0.7
			c0,0-0.7,1.5-2,2.9c-1.1,1.2-2.7,2.6-4.6,2.6c-0.6,0-1.3,0.1-1.8,0.4v-2c0-8.8,7.1-15.9,15.9-15.9S113,48.2,113,57v3.1
			c0,0.7,0.6,1.3,1.3,1.3c0.7,0,1.3-0.6,1.3-1.3V57c0-6.9-3.8-13-9.5-16.2c0.1-0.3,0.1-0.7,0.1-1c0-4.2-4.1-7.6-9.2-7.6
			s-9.2,3.4-9.2,7.6c0,0.4,0,0.7,0.1,1C82.2,44,78.4,50,78.4,57v6.3c0,2,1.3,3.7,3.2,4.3c0.1,0.8,0.2,1.5,0.3,2.3
			c0.8,3.4,2.7,6.4,5.4,8.6c0.7,0.5,1.4,1,2.1,1.4v3.3c0,0.7-0.4,1.4-1.1,1.7L77.5,89c-2.3,0.9-3.8,3.1-3.8,5.6v7.8
			c0,0.4,0.1,0.7,0.4,0.9c0.2,0.2,0.6,0.4,0.9,0.4l0,0h0.2v12.8c0,0.7,0.6,1.3,1.3,1.3c0.7,0,1.3-0.6,1.3-1.3v-12.8h3.6v12.8
			c0,0.7,0.6,1.3,1.3,1.3c0.7,0,1.3-0.6,1.3-1.3V99.3c0-0.7-0.6-1.3-1.3-1.3c-0.7,0-1.3,0.6-1.3,1.3v1.8h-4.9l0,0h-0.2v-6.5
			c0-1.4,0.8-2.6,2.1-3.1l8.4-3.3c1.1,1.9,4.3,6.5,9.5,9.2c0.2,0.1,0.4,0.1,0.6,0.1s0.4,0,0.6-0.1c5.3-2.6,8.4-7.3,9.5-9.2l8.4,3.3
			c1.3,0.5,2.1,1.7,2.1,3.1v6.5h-0.2h-4.9v-1.8c0-0.7-0.6-1.3-1.3-1.3s-1.3,0.6-1.3,1.3v17.2c0,0.7,0.6,1.3,1.3,1.3s1.3-0.6,1.3-1.3
			v-12.8h3.6v12.8c0,0.7,0.6,1.3,1.3,1.3c0.7,0,1.3-0.6,1.3-1.3v-12.8h0.2c0.7,0,1.3-0.6,1.3-1.3v-7.8C120.2,92.2,118.7,90,116.4,89
			z M96.9,34.8c3.5,0,6.4,2.1,6.5,4.8c-2-0.8-4.2-1.2-6.5-1.2s-4.5,0.4-6.5,1.2C90.5,37,93.4,34.8,96.9,34.8z M84.5,69.2
			c-0.2-0.9-0.3-1.9-0.3-2.8c0-0.7-0.6-1.3-1.3-1.3c-1,0-1.8-0.8-1.8-1.8c0-1,0.8-1.8,1.8-1.8c4,0,6.9-3.6,8.2-5.7
			c3.1,2,6.6,2.7,9.8,3.3c5.8,1.2,8.9,2,8.9,7.3c0,1-0.1,1.9-0.3,2.8c-0.6,2.8-2.2,5.3-4.4,7.1c-2.3,1.9-5.1,2.8-8,2.8s-5.7-1-8-2.8
			C86.7,74.5,85.1,72,84.5,69.2z M96.9,94.7c-4-2.2-6.6-5.8-7.6-7.5c1.6-0.7,2.7-2.3,2.7-4.1V81c1.6,0.5,3.3,0.8,4.9,0.8
			s3.4-0.3,4.9-0.8v2.1c0,1.8,1.1,3.4,2.7,4.1C103.5,88.9,100.9,92.4,96.9,94.7z"/>
		<path d="M68.5,79l5.9,1.8c1.4,0.4,2.4,1.7,2.4,3.2c0,0.7,0.6,1.3,1.3,1.3c0.7,0,1.3-0.6,1.3-1.3c0-2.7-1.7-5-4.3-5.8l-8.6-2.6
			l-1.4-2.1c-0.2-0.3-0.5-0.5-0.9-0.6c-0.1,0-0.3,0-0.4,0v-2c3.5-2.6,5.9-6.7,6.2-11.3c1.8-0.6,3.2-2.3,3.2-4.3
			c0-1.3-0.6-2.5-1.6-3.4v-9.2c0-2.5-1.3-4.9-3.4-6.3c-0.7-2.6-3-4.5-5.8-4.5H49.9c-6.8,0-12.3,5.5-12.3,12.3V52
			c-1,0.8-1.6,2.1-1.6,3.4c0,2,1.3,3.7,3.2,4.3c0.3,4.6,2.7,8.7,6.2,11.3v2c-0.1,0-0.3,0-0.4,0c-0.4,0.1-0.7,0.3-0.9,0.6l-1.4,2.1
			l-8.6,2.6c-2.6,0.8-4.3,3.1-4.3,5.8v32.5c0,0.7,0.6,1.3,1.3,1.3s1.3-0.6,1.3-1.3V84c0-1.5,1-2.8,2.4-3.2l5.9-1.8
			c0,0.3,0.1,0.5,0.3,0.8l5.3,6.6c0.6,0.7,1.4,1.1,2.3,1.1c0.6,0,1.2-0.2,1.7-0.6l2.9-2.2v31.8c0,0.7,0.6,1.3,1.3,1.3
			s1.3-0.6,1.3-1.3V84.7l2.9,2.2c0.5,0.4,1.1,0.6,1.7,0.6c0.8,0,1.7-0.4,2.3-1.1l5.3-6.6C68.4,79.5,68.5,79.2,68.5,79z M41.9,58.6
			c0-0.7-0.6-1.3-1.3-1.3c-1,0-1.8-0.8-1.8-1.8c0-0.6,0.3-1.2,0.9-1.6c0,0,0.1,0,0.1-0.1c0.3-0.1,0.5-0.2,0.8-0.2h1.8
			c1.4,0,2.6-1,2.8-2.3l1-4.8c0-0.1,0-0.1,0.1-0.2c0,0,0.1-0.1,0.2,0c2.4,0.7,5.2,1,8.1,1c3.8,0,7.3-0.6,9.9-1.7
			c0.7-0.3,1-1.1,0.7-1.7c-0.3-0.7-1.1-1-1.7-0.7c-2.2,0.9-5.5,1.5-8.9,1.5c-2.7,0-5.3-0.3-7.4-0.9c-0.8-0.2-1.6-0.1-2.3,0.3
			c-0.7,0.4-1.2,1.1-1.3,1.9l-1,4.8c0,0.1-0.1,0.2-0.2,0.2h-1.8c-0.1,0-0.2,0-0.2,0v-6.5c0-5.3,4.3-9.6,9.6-9.6h12.5
			c1.7,0,3.1,1.2,3.3,2.8c0.1,0.4,0.3,0.7,0.7,0.9c1.6,0.9,2.5,2.5,2.5,4.3v9.8c0,0.5,0.3,0.9,0.7,1.1c0.6,0.3,0.9,0.9,0.9,1.6
			c0,1-0.8,1.8-1.8,1.8c-0.7,0-1.3,0.6-1.3,1.3c0,7-5.7,12.8-12.8,12.8S41.9,65.6,41.9,58.6z M54.6,74c2.3,0,4.5-0.5,6.5-1.4V75
			l-6.5,5.4L48.1,75v-2.4C50.1,73.5,52.3,74,54.6,74z M48.8,84.8c-0.1,0.1-0.3,0.1-0.3,0l-4.7-5.9l1.8-2.7l7,5.8L48.8,84.8z
			 M60.8,84.7c-0.1,0.1-0.2,0.1-0.3,0L56.8,82l7-5.8l1.8,2.7L60.8,84.7z"/>
		<path d="M50,94.8L50,94.8c-0.7,0-1.3,0.6-1.3,1.3c0,0.7,0.6,1.3,1.3,1.3s1.3-0.6,1.3-1.3S50.7,94.8,50,94.8z"/>
		<path d="M50,107.4L50,107.4c-0.7,0-1.3,0.6-1.3,1.3c0,0.7,0.6,1.3,1.3,1.3s1.3-0.6,1.3-1.3C51.3,107.9,50.7,107.4,50,107.4z"/>
		<path d="M50,101.1L50,101.1c-0.7,0-1.3,0.6-1.3,1.3c0,0.7,0.6,1.3,1.3,1.3s1.3-0.6,1.3-1.3S50.7,101.1,50,101.1z"/>
	</g>
</g>
</svg>
