<?xml version="1.0" encoding="utf-8"?>
<!-- Generator: Adobe Illustrator 22.0.1, SVG Export Plug-In . SVG Version: 6.00 Build 0)  -->
<svg version="1.1" id="Layer_1" xmlns="http://www.w3.org/2000/svg" xmlns:xlink="http://www.w3.org/1999/xlink" x="0px" y="0px"
	 viewBox="0 0 150 150" style="enable-background:new 0 0 150 150;" xml:space="preserve">
<g>
	<path d="M75,0C33.6,0,0,33.6,0,75s33.6,75,75,75s75-33.6,75-75S116.4,0,75,0z M75,139.3c-35.5,0-64.3-28.8-64.3-64.3
		S39.5,10.7,75,10.7s64.3,28.8,64.3,64.3S110.5,139.3,75,139.3z"/>
	<g>
		<path d="M83.4,81.9c-0.3-0.5-0.8-0.9-1.4-1.1s-1.3-0.1-1.8,0.2c-1.6,0.9-3.4,1.4-5.2,1.4c-1.8,0-3.6-0.5-5.2-1.4
			c-0.5-0.3-1.2-0.4-1.8-0.2c-0.6,0.2-1.1,0.6-1.4,1.1l-16,27.6c-0.3,0.5-0.4,1.2-0.2,1.8c0.2,0.6,0.6,1.1,1.1,1.4
			c7,4.1,15,6.2,23.2,6.3c0.1,0,0.3,0,0.4,0c8.2,0,16.3-2.2,23.5-6.3c1.1-0.7,1.5-2.1,0.9-3.2L83.4,81.9z M75,114.3
			c-0.1,0-0.3,0-0.4,0c-6.5-0.1-12.9-1.6-18.7-4.5l13.6-23.6c1.7,0.7,3.6,1,5.4,1c1.9,0,3.7-0.3,5.4-1l13.6,23.6
			C88.2,112.8,81.6,114.3,75,114.3L75,114.3z"/>
		<path d="M64.6,72c0-3.7,2-7.2,5.2-9c1.1-0.7,1.5-2.1,0.9-3.2l-16-27.6c-0.3-0.5-0.8-0.9-1.4-1.1c-0.6-0.2-1.3-0.1-1.8,0.2
			c-7,4.1-12.9,9.9-17,16.9C30.3,55.4,28,63.7,28,72.1c0,1.3,1.1,2.4,2.4,2.4h31.9C63.5,74.4,64.6,73.3,64.6,72L64.6,72z M32.7,69.6
			c0.4-6.7,2.4-13.3,5.8-19.1c3.3-5.6,7.9-10.4,13.3-14l13.6,23.6c-2.9,2.4-4.8,5.7-5.4,9.4L32.7,69.6L32.7,69.6z"/>
		<path d="M115.9,48.8c-4.1-7.3-10.1-13.3-17.4-17.6c-1.1-0.7-2.6-0.3-3.2,0.9l-16,27.6c-0.7,1.1-0.3,2.6,0.9,3.2
			c3.2,1.9,5.2,5.3,5.2,9c0,1.3,1.1,2.4,2.4,2.4h31.9c0.6,0,1.2-0.2,1.7-0.7c0.4-0.4,0.7-1,0.7-1.7
			C122.1,63.9,119.9,55.9,115.9,48.8L115.9,48.8z M90,69.6c-0.6-3.7-2.5-7.1-5.4-9.4l13.6-23.6c5.6,3.7,10.3,8.7,13.6,14.5
			c3.2,5.7,5.1,12,5.4,18.5H90z"/>
		<path d="M67,72c0,4.4,3.6,8,8,8s8-3.6,8-8s-3.6-8-8-8S67,67.6,67,72L67,72z M75,68.8c1.8,0,3.3,1.5,3.3,3.2c0,1.8-1.5,3.3-3.3,3.3
			s-3.3-1.5-3.3-3.3C71.8,70.2,73.2,68.8,75,68.8L75,68.8z"/>
	</g>
</g>
</svg>
