<?xml version="1.0" encoding="utf-8"?>
<!-- Generator: Adobe Illustrator 22.0.1, SVG Export Plug-In . SVG Version: 6.00 Build 0)  -->
<svg version="1.1" id="Layer_1" xmlns="http://www.w3.org/2000/svg" xmlns:xlink="http://www.w3.org/1999/xlink" x="0px" y="0px"
	 viewBox="0 0 150 150" style="enable-background:new 0 0 150 150;" xml:space="preserve">
<g>
	<path d="M75,0C33.6,0,0,33.6,0,75s33.6,75,75,75s75-33.6,75-75S116.4,0,75,0z M75,139.3c-35.5,0-64.3-28.8-64.3-64.3
		c0-35.5,28.8-64.3,64.3-64.3s64.3,28.8,64.3,64.3C139.3,110.5,110.5,139.3,75,139.3z"/>
	<path d="M113.4,67.9c0-5.5-4.1-10-9.4-10.7V44.9c0-1.4-0.7-2.6-1.9-3.3c-1.2-0.7-2.6-0.7-3.8,0C87,48,74.6,51.7,61.5,52.7
		c-0.1,0-11.9,0.1-11.9,0.1c-3,0-5.4,2.2-5.7,5.1h-2.4c-2.7,0-4.8,2.2-4.8,4.8v10.6c0,2.7,2.2,4.8,4.8,4.8h2.4
		c0.2,2.1,1.6,3.8,3.4,4.6l8.6,23.8c0.5,1.5,2,2.5,3.5,2.5h8.6c1.2,0,2.4-0.6,3.1-1.6c0.7-1,0.9-2.3,0.5-3.4l-7.4-20.4
		c12.1,1.3,23.5,4.9,34.1,10.8c0.6,0.3,1.2,0.5,1.9,0.5c0.7,0,1.3-0.2,1.9-0.5c1.2-0.7,1.9-1.9,1.9-3.3V78.6
		C109.3,77.9,113.4,73.4,113.4,67.9z M47.5,58.5c0-1.1,0.9-2.1,2.1-2.1h10.1v23c0,0-10.2,0-10.2,0c-0.4,0-0.4-0.1-0.7-0.2
		c-0.7-0.3-1.2-1.1-1.2-1.9L47.5,58.5L47.5,58.5z M40.3,73.2V62.6c0-0.6,0.5-1.1,1.1-1.1h2.4v12.8h-2.4
		C40.8,74.3,40.3,73.8,40.3,73.2z M68.1,105.2C68.1,105.2,68.1,105.2,68.1,105.2l-8.7,0c0,0,0,0,0,0l-8-22h8.8L68.1,105.2
		C68.1,105.1,68.1,105.1,68.1,105.2z M100.3,90.9C100.3,91,100.3,91,100.3,90.9c-0.1,0.1-0.1,0.1-0.1,0.1
		c-11.4-6.4-23.7-10.2-36.7-11.4V56.2c13-1.2,25.4-5,36.7-11.4c0,0,0.1,0,0.1,0c0,0,0,0,0,0.1V90.9z M104,74.8V61
		c3.2,0.6,5.7,3.5,5.7,6.9C109.7,71.3,107.2,74.2,104,74.8z"/>
</g>
</svg>
