<?xml version="1.0" encoding="utf-8"?>
<!-- Generator: Adobe Illustrator 22.0.1, SVG Export Plug-In . SVG Version: 6.00 Build 0)  -->
<svg version="1.1" id="Layer_1" xmlns="http://www.w3.org/2000/svg" xmlns:xlink="http://www.w3.org/1999/xlink" x="0px" y="0px"
	 viewBox="0 0 150 150" style="enable-background:new 0 0 150 150;" xml:space="preserve">
<g>
	<path d="M75,0C33.6,0,0,33.6,0,75s33.6,75,75,75s75-33.6,75-75S116.4,0,75,0z M75,139.3c-35.5,0-64.3-28.8-64.3-64.3
		c0-35.5,28.8-64.3,64.3-64.3s64.3,28.8,64.3,64.3C139.3,110.5,110.5,139.3,75,139.3z"/>
	<g>
		<path d="M72.9,85.4c-2.5,0-4.3-1.9-4.7-4.3l-0.9-5.9c-0.4-2.9,1.2-4.9,4-5.2c7.6-1,11-3.3,11-7.6v-0.2c0-3.9-3-6.2-8-6.2
			c-3.7,0-6.9,1.1-10.1,3.5c-1,0.8-2.4,1.4-3.9,1.4c-3.3,0-6.1-2.8-6.1-6.1c0-1.7,0.7-3.4,2.3-4.7C61.2,46.4,67,44,74.7,44
			c12.5,0,21,6.4,21,18v0.2c0,11-7.6,15.5-17.1,17.4l-0.3,1.6c-0.3,2.3-2.2,4.3-4.7,4.3H72.9z M72.9,91.1c4.3,0,7.6,3.2,7.6,7.4v0.2
			c0,4.2-3.2,7.4-7.6,7.4c-4.3,0-7.6-3.2-7.6-7.4v-0.2C65.4,94.3,68.6,91.1,72.9,91.1z"/>
	</g>
</g>
</svg>
