<?xml version="1.0" encoding="utf-8"?>
<!-- Generator: Adobe Illustrator 22.0.1, SVG Export Plug-In . SVG Version: 6.00 Build 0)  -->
<svg version="1.1" id="Layer_1" xmlns="http://www.w3.org/2000/svg" xmlns:xlink="http://www.w3.org/1999/xlink" x="0px" y="0px"
	 viewBox="0 0 150 150" style="enable-background:new 0 0 150 150;" xml:space="preserve">
<g>
	<path d="M75,0C33.6,0,0,33.6,0,75s33.6,75,75,75s75-33.6,75-75S116.4,0,75,0z M75,139.3c-35.5,0-64.3-28.8-64.3-64.3
		c0-35.5,28.8-64.3,64.3-64.3s64.3,28.8,64.3,64.3C139.3,110.5,110.5,139.3,75,139.3z"/>
	<path d="M130,74.6h-21.3c2.3-4,3.5-8.3,3.5-12.7c0-13.2-9.9-24-22.1-24c-5.6,0-10.9,2.3-15,6.3c-4.1-4.1-9.4-6.3-15-6.3
		c-12.2,0-22.1,10.8-22.1,24c0,3.7,0.8,7.3,2.5,10.7h-19c-1.6,0-2.9,1.3-2.9,2.9s1.3,2.9,2.9,2.9H44c0.1,0.1,0.1,0.1,0.2,0.2
		c6.9,8.4,27.9,31.6,28.8,32.6c0.5,0.6,1.2,0.9,2,0.9c0.7,0,1.5-0.3,2-0.9c0.8-0.9,19.4-21.3,27.4-30.8H130c1.6,0,2.9-1.3,2.9-2.9
		S131.6,74.6,130,74.6z M43.2,61.9c0-10.3,7.6-18.7,16.8-18.7c5,0,9.7,2.4,12.9,6.7c1,1.3,3.2,1.3,4.2,0c3.2-4.2,7.9-6.7,12.9-6.7
		c9.3,0,16.8,8.4,16.8,18.7c0,5.5-2.4,9.8-4.6,12.7H91.3v-9.9c0-1.3-0.8-2.4-2-2.8c-1.2-0.4-2.5,0.1-3.3,1.1L74,79.9V58
		c0-1.2-0.8-2.3-2-2.8c-1.2-0.4-2.5,0-3.2,0.9l-13,16.4h-9.4C44.7,69.8,43.2,66.2,43.2,61.9z M75,105.5
		c-4.8-5.3-17.2-19.1-24.1-27.1h6.2c0.9,0,1.7-0.4,2.3-1.1l8.7-10.9v22.7c0,1.3,0.8,2.4,2,2.8c0.3,0.1,0.6,0.1,0.9,0.1
		c0.9,0,1.8-0.4,2.4-1.2l12-16.9v3.7c0,1.6,1.3,2.9,2.9,2.9h9C90.3,88.5,79.4,100.6,75,105.5z"/>
</g>
</svg>
