<?xml version="1.0" encoding="utf-8"?>
<!-- Generator: Adobe Illustrator 22.0.1, SVG Export Plug-In . SVG Version: 6.00 Build 0)  -->
<svg version="1.1" id="Layer_1" xmlns="http://www.w3.org/2000/svg" xmlns:xlink="http://www.w3.org/1999/xlink" x="0px" y="0px"
	 viewBox="0 0 150 150" style="enable-background:new 0 0 150 150;" xml:space="preserve">
<g>
	<path d="M75,0C33.6,0,0,33.6,0,75s33.6,75,75,75s75-33.6,75-75S116.4,0,75,0z M75,139.3c-35.5,0-64.3-28.8-64.3-64.3
		c0-35.5,28.8-64.3,64.3-64.3s64.3,28.8,64.3,64.3C139.3,110.5,110.5,139.3,75,139.3z"/>
	<g>
		<path d="M91.3,71.9c0.5-0.6,0.4-1.4-0.2-1.9c-0.6-0.5-1.4-0.4-1.9,0.2c-0.6,0.7-1.3,1.1-2.1,1.1c-0.8,0-1.5-0.4-2.1-1.1
			c-0.5-0.6-1.3-0.7-1.9-0.2c-0.6,0.5-0.7,1.3-0.2,1.9c1.1,1.3,2.6,2.1,4.2,2.1C88.7,74,90.2,73.2,91.3,71.9z"/>
		<path d="M80.9,61.9c-0.7,0-1.3,0.6-1.3,1.3v1.6c0,0.7,0.6,1.3,1.3,1.3c0.7,0,1.3-0.6,1.3-1.3v-1.6C82.2,62.5,81.6,61.9,80.9,61.9z
			"/>
		<path d="M93.4,66.1c0.7,0,1.3-0.6,1.3-1.3v-1.6c0-0.7-0.6-1.3-1.3-1.3c-0.7,0-1.3,0.6-1.3,1.3v1.6C92.1,65.5,92.7,66.1,93.4,66.1z
			"/>
		<path d="M106.6,89l-10.7-4.3c-0.7-0.3-1.1-0.9-1.1-1.7v-3.3c0.7-0.4,1.4-0.9,2.1-1.4c2.7-2.2,4.6-5.2,5.4-8.6
			c0.3-1.1,0.4-2.3,0.4-3.4c0-7.7-5.6-8.8-11-9.9c-3.5-0.7-7-1.4-9.9-3.7c-0.3-0.2-0.7-0.3-1.1-0.3c-0.4,0.1-0.7,0.3-0.9,0.7
			c0,0-0.7,1.5-2,2.9c-1.1,1.2-2.7,2.6-4.6,2.6c-0.6,0-1.1,0.1-1.6,0.3v-4.6c1.2-7.6,7.8-13.4,15.7-13.4c8.8,0,15.9,7.1,15.9,15.9
			v3.1c0,0.7,0.6,1.3,1.3,1.3c0.7,0,1.3-0.6,1.3-1.3V57c0-6.9-3.8-13-9.5-16.2c0.1-0.3,0.1-0.7,0.1-1c0-4.2-4.1-7.6-9.2-7.6
			S78,35.6,78,39.8c0,0.4,0,0.7,0.1,1c-2.7,1.5-5,3.7-6.6,6.3v-4.9c0-2.5-2-4.5-4.5-4.5H29.7c-2.5,0-4.5,2-4.5,4.5V64
			c0,2.5,2,4.5,4.5,4.5H53l9.4,9.4c0.4,0.4,0.8,0.5,1.3,0.5c0.2,0,0.5,0,0.7-0.1c0.7-0.3,1.2-1,1.2-1.7v-8.1H67
			c1.4,0,2.6-0.7,3.4-1.6c0.4,0.3,0.9,0.5,1.3,0.7c0.1,0.8,0.2,1.5,0.3,2.3c0.8,3.4,2.7,6.4,5.4,8.6c0.7,0.5,1.4,1,2.1,1.4v3.3
			c0,0.7-0.4,1.4-1.1,1.7L67.7,89c-2.3,0.9-3.8,3.1-3.8,5.6v7.8c0,0.4,0.1,0.7,0.4,0.9c0.2,0.2,0.6,0.4,0.9,0.4c0,0,0,0,0,0h0.2
			v12.8c0,0.7,0.6,1.3,1.3,1.3s1.3-0.6,1.3-1.3v-12.8h3.6v12.8c0,0.7,0.6,1.3,1.3,1.3c0.7,0,1.3-0.6,1.3-1.3V99.3
			c0-0.7-0.6-1.3-1.3-1.3c-0.7,0-1.3,0.6-1.3,1.3v1.8h-4.9c0,0,0,0,0,0h-0.2v-6.5c0-1.4,0.8-2.6,2.1-3.1l8.4-3.3
			c1.1,1.9,4.3,6.5,9.5,9.2c0.2,0.1,0.4,0.1,0.6,0.1c0.2,0,0.4,0,0.6-0.1c5.3-2.6,8.4-7.3,9.5-9.2l8.4,3.3c1.3,0.5,2.1,1.7,2.1,3.1
			v6.5h-0.2h-4.9v-1.8c0-0.7-0.6-1.3-1.3-1.3c-0.7,0-1.3,0.6-1.3,1.3v17.2c0,0.7,0.6,1.3,1.3,1.3c0.7,0,1.3-0.6,1.3-1.3v-12.8h3.6
			v12.8c0,0.7,0.6,1.3,1.3,1.3c0.7,0,1.3-0.6,1.3-1.3v-12.8h0.2c0.7,0,1.3-0.6,1.3-1.3v-7.8C110.4,92.2,108.9,90,106.6,89z
			 M87.1,34.8c3.5,0,6.4,2.1,6.5,4.8c-2-0.8-4.2-1.2-6.5-1.2c-2.3,0-4.5,0.4-6.5,1.2C80.7,37,83.6,34.8,87.1,34.8z M67.7,64
			c0,0.4-0.3,0.7-0.7,0.7h-3.2c-1,0-1.8,0.8-1.9,1.7c0,0,0,5.6,0,5.6l-6.8-6.8c0,0,0,0,0,0c0,0-0.1,0-0.1-0.1
			c-0.3-0.3-0.8-0.5-1.2-0.5H29.7c-0.4,0-0.7-0.3-0.7-0.7V42.2c0-0.4,0.3-0.7,0.7-0.7H67c0.4,0,0.7,0.3,0.7,0.7V64z M79.1,76.3
			c-2.2-1.8-3.8-4.3-4.4-7.1c-0.2-0.9-0.3-1.9-0.3-2.8c0-0.7-0.6-1.3-1.3-1.3c-0.7,0-1.3-0.4-1.6-1c0,0,0,0,0,0v-1.6
			c0.3-0.6,0.9-1,1.6-1c4,0,6.9-3.6,8.2-5.7c3.1,2,6.6,2.7,9.8,3.3c5.8,1.2,8.9,2,8.9,7.3c0,1-0.1,1.9-0.3,2.8
			c-0.6,2.8-2.2,5.3-4.4,7.1c-2.3,1.9-5.1,2.8-8,2.8S81.4,78.2,79.1,76.3z M87.1,94.7c-4-2.2-6.6-5.8-7.6-7.5
			c1.6-0.7,2.7-2.3,2.7-4.1V81c1.6,0.5,3.3,0.8,4.9,0.8c1.7,0,3.4-0.3,4.9-0.8v2.1c0,1.8,1.1,3.4,2.7,4.1
			C93.7,88.9,91.1,92.4,87.1,94.7z"/>
	</g>
</g>
</svg>
