<?xml version="1.0" encoding="utf-8"?>
<!-- Generator: Adobe Illustrator 22.0.1, SVG Export Plug-In . SVG Version: 6.00 Build 0)  -->
<svg version="1.1" id="Layer_1" xmlns="http://www.w3.org/2000/svg" xmlns:xlink="http://www.w3.org/1999/xlink" x="0px" y="0px"
	 viewBox="0 0 150 150" style="enable-background:new 0 0 150 150;" xml:space="preserve">
<g>
	<path d="M75,0C33.6,0,0,33.6,0,75s33.6,75,75,75s75-33.6,75-75S116.4,0,75,0z M75,139.3c-35.5,0-64.3-28.8-64.3-64.3
		c0-35.5,28.8-64.3,64.3-64.3s64.3,28.8,64.3,64.3C139.3,110.5,110.5,139.3,75,139.3z"/>
	<g>
		<path d="M101,88.6c-0.2,0.2-0.3,0.5-0.3,0.8c0,0.3,0.1,0.6,0.3,0.8c0.2,0.2,0.5,0.3,0.8,0.3c0.3,0,0.6-0.1,0.8-0.3
			c0.2-0.2,0.3-0.5,0.3-0.8c0-0.3-0.1-0.6-0.3-0.8C102.3,88.1,101.5,88.1,101,88.6L101,88.6z M101,88.6"/>
		<path d="M67.6,86.2L63.3,84v-0.5c1.9-1,3.2-2.7,4-5.1c1.1-0.6,1.9-1.8,1.9-3.1v-1.2c0-1.1-0.5-2.1-1.3-2.7
			c-0.7-4.4-3.8-6.7-9.2-6.7c-0.3,0-0.5,0-0.7,0c-1,0.1-2.5,0-3.8-0.9c-0.5-0.3-0.8-0.6-1.1-0.9c-0.4-0.5-1-0.7-1.6-0.4
			c-0.6,0.2-0.9,0.8-0.9,1.5c0.1,0.4,0.1,0.9,0.2,1.5c0.2,1.1,0.2,1.1-0.1,1.8c-0.1,0.3-0.3,0.6-0.4,1c-0.4,0.9-0.7,2-0.8,3.1
			c-0.8,0.7-1.3,1.7-1.3,2.7v1.2c0,1.3,0.7,2.5,1.9,3.1c0.7,2.4,2.1,4.1,4,5.1V84l-4.4,2.2C48,87.1,47,88.7,47,90.6v1.5
			c0,0.9,0,3.1,11.7,3.1c11.7,0,11.7-2.2,11.7-3.1v-1.5C70.3,88.8,69.3,87,67.6,86.2L67.6,86.2z M68,91.9c-0.7,0.4-3.7,1.1-9.3,1.1
			s-8.6-0.6-9.3-1.1v-1.3c0-1,0.5-1.9,1.3-2.3l4.5-2.2c0.7-0.3,1.2-1.1,1.2-1.9v-2.1l-0.7-0.3c-1.8-0.8-2.9-2.2-3.5-4.5l-0.2-0.6
			l-0.6-0.2c-0.5-0.2-0.8-0.6-0.8-1.1v-1.2c0-0.4,0.2-0.8,0.6-1l0.5-0.3l0.1-0.6c0.1-1.1,0.4-2.1,0.7-3c0.2-0.4,0.3-0.7,0.4-0.9
			c0.4-0.9,0.5-1.3,0.4-2.2c1.4,0.8,3,1.1,4.8,1c0.2,0,0.4,0,0.6,0c4.4,0,6.5,1.6,6.9,5.1l0.1,0.6l0.5,0.3c0.4,0.2,0.6,0.6,0.6,1
			v1.2c0,0.5-0.3,1-0.8,1.1l-0.6,0.2l-0.2,0.6c-0.6,2.2-1.8,3.7-3.5,4.5L61,82.1v2.1c0,0.8,0.4,1.5,1.1,1.8l4.4,2.2l0,0
			c0.9,0.5,1.5,1.4,1.5,2.4V91.9z M68,91.9"/>
		<path d="M76.2,70.7h11.7c0.6,0,1.2-0.5,1.2-1.2c0-0.6-0.5-1.2-1.2-1.2H76.2c-0.6,0-1.2,0.5-1.2,1.2C75,70.2,75.5,70.7,76.2,70.7
			L76.2,70.7z M76.2,70.7"/>
		<path d="M77.3,88.2h-1.2c-0.6,0-1.2,0.5-1.2,1.2c0,0.6,0.5,1.2,1.2,1.2h1.2c0.6,0,1.2-0.5,1.2-1.2C78.5,88.8,78,88.2,77.3,88.2
			L77.3,88.2z M77.3,88.2"/>
		<path d="M84.3,88.2H82c-0.6,0-1.2,0.5-1.2,1.2c0,0.6,0.5,1.2,1.2,1.2h2.3c0.7,0,1.2-0.5,1.2-1.2C85.5,88.8,85,88.2,84.3,88.2
			L84.3,88.2z M84.3,88.2"/>
		<path d="M90.2,88.2H89c-0.7,0-1.2,0.5-1.2,1.2c0,0.6,0.5,1.2,1.2,1.2h1.2c0.7,0,1.2-0.5,1.2-1.2C91.4,88.8,90.8,88.2,90.2,88.2
			L90.2,88.2z M90.2,88.2"/>
		<path d="M97.2,88.2h-2.3c-0.7,0-1.2,0.5-1.2,1.2c0,0.6,0.5,1.2,1.2,1.2h2.3c0.6,0,1.2-0.5,1.2-1.2C98.4,88.8,97.8,88.2,97.2,88.2
			L97.2,88.2z M97.2,88.2"/>
		<path d="M101.9,75.4H76.2c-0.6,0-1.2,0.5-1.2,1.2c0,0.6,0.5,1.2,1.2,1.2h25.7c0.7,0,1.2-0.5,1.2-1.2
			C103,75.9,102.5,75.4,101.9,75.4L101.9,75.4z M101.9,75.4"/>
		<path d="M101.9,82.4H76.2c-0.6,0-1.2,0.5-1.2,1.2c0,0.6,0.5,1.2,1.2,1.2h25.7c0.7,0,1.2-0.5,1.2-1.2
			C103,82.9,102.5,82.4,101.9,82.4L101.9,82.4z M101.9,82.4"/>
		<path d="M104.6,53.2H83.2v-9c0-1.5-1.2-2.7-2.7-2.7h-11c-1.5,0-2.7,1.2-2.7,2.7v9H45.4c-3,0-5.5,2.5-5.5,5.5v38.1
			c0,3,2.5,5.5,5.5,5.5h59.2c3,0,5.5-2.5,5.5-5.5V58.6C110,55.6,107.6,53.2,104.6,53.2L104.6,53.2z M69.2,44.2
			c0-0.2,0.2-0.4,0.4-0.4h11c0.2,0,0.4,0.2,0.4,0.4v15.6c0,0.2-0.2,0.4-0.4,0.4h-11c-0.2,0-0.4-0.2-0.4-0.4V44.2z M107.7,96.8
			c0,1.7-1.4,3.1-3.1,3.1H45.4c-1.7,0-3.1-1.4-3.1-3.1V58.6c0-1.7,1.4-3.1,3.1-3.1h21.4v4.3c0,1.5,1.2,2.7,2.7,2.7h11
			c1.5,0,2.7-1.2,2.7-2.7v-4.3h21.4c1.7,0,3.1,1.4,3.1,3.1V96.8z M107.7,96.8"/>
		<path d="M75,54.3c2.6,0,4.7-2.1,4.7-4.7c0-2.6-2.1-4.7-4.7-4.7c-2.6,0-4.7,2.1-4.7,4.7C70.3,52.2,72.4,54.3,75,54.3L75,54.3z
			 M75,47.3c1.3,0,2.3,1,2.3,2.3c0,1.3-1,2.3-2.3,2.3c-1.3,0-2.3-1-2.3-2.3C72.7,48.4,73.7,47.3,75,47.3L75,47.3z M75,47.3"/>
	</g>
</g>
</svg>
