<?xml version="1.0" encoding="utf-8"?>
<!-- Generator: Adobe Illustrator 22.0.1, SVG Export Plug-In . SVG Version: 6.00 Build 0)  -->
<svg version="1.1" id="Layer_1" xmlns="http://www.w3.org/2000/svg" xmlns:xlink="http://www.w3.org/1999/xlink" x="0px" y="0px"
	 viewBox="0 0 150 150" style="enable-background:new 0 0 150 150;" xml:space="preserve">
<path d="M75,0C33.6,0,0,33.6,0,75s33.6,75,75,75s75-33.6,75-75S116.4,0,75,0z M75,139.3c-35.5,0-64.3-28.8-64.3-64.3
	c0-35.5,28.8-64.3,64.3-64.3s64.3,28.8,64.3,64.3C139.3,110.5,110.5,139.3,75,139.3z"/>
<g>
	<path d="M69.9,51.3c0.9,0,1.7-0.8,1.7-1.7c0-2.9,1.8-5.2,4-5.2c0.9,0,1.7-0.8,1.7-1.7S76.5,41,75.6,41c-4.1,0-7.4,3.9-7.4,8.6
		C68.2,50.5,69,51.3,69.9,51.3z"/>
	<path d="M84,81.3c0.3,0.4,0.8,0.6,1.3,0.6s0.9-0.2,1.3-0.6c0.6-0.6,14.1-15.5,18.5-20.9c2.6-3.2,4-7,4-10.8
		c0-8.5-6.4-15.4-14.2-15.4c-3.6,0-7,1.5-9.6,4.1c-2.6-2.6-6-4.1-9.6-4.1c-7.8,0-14.2,6.9-14.2,15.4c0,3.8,1.4,7.5,4,10.8
		C69.8,65.8,83.4,80.7,84,81.3z M75.6,37.6c3.2,0,6.2,1.6,8.3,4.3c0.6,0.8,2.1,0.8,2.7,0c2.1-2.7,5.1-4.3,8.3-4.3
		c6,0,10.8,5.4,10.8,12c0,3.8-1.8,6.8-3.3,8.6c-3.6,4.4-13.6,15.5-17.1,19.4c-3.5-3.9-13.6-15-17.1-19.4c-1.5-1.8-3.3-4.8-3.3-8.6
		C64.8,43,69.6,37.6,75.6,37.6z"/>
	<path d="M115.7,99.8c-2.4-4.7-7.6-7.1-12.7-5.9l-11,2.8c-0.5-4.3-3-6.8-8-8l-29.5-6.6c0.1-0.6,0.2-1.3,0.2-1.8c0-0.5-0.1-1-0.5-1.4
		c-2.9-2.8-14.6-3.7-18.1-3.9c-0.5,0-0.9,0.1-1.3,0.5c-0.3,0.3-0.5,0.8-0.5,1.2v30.6c0,0.9,0.8,1.7,1.7,1.7h10.2
		c0.7,0,1.4-0.5,1.6-1.2c0-0.1,0.3-0.9,0.6-2l24.4,8.1c2.9,1.1,4.8,1.7,7.1,1.7c3.5,0,7.5-1.5,16.4-5.2l18.7-8.5
		c0.4-0.2,0.7-0.5,0.9-1C115.9,100.7,115.9,100.2,115.7,99.8z M44.8,105.7h-7.3V78.6C43,79,48.9,80,51.1,81
		C50.2,88.5,46.1,101.7,44.8,105.7z M94.8,107.5c-14.3,5.9-14.8,5.7-20.9,3.4l-24.5-8.2c1.4-4.6,3.4-11.5,4.5-17.2L83.1,92
		c3.8,0.9,5.3,2.4,5.5,5.5l-3.3,0.8c-1.2,0.3-2.5,0.3-3.7,0.1l-14.8-3c-0.9-0.2-1.8,0.4-2,1.3c-0.2,0.9,0.4,1.8,1.3,2l14.8,3
		c0.8,0.2,1.6,0.2,2.3,0.2c1,0,2-0.1,2.9-0.4l4.6-1.1c0,0,0,0,0,0l13-3.3c3-0.7,6,0.3,7.9,2.6L94.8,107.5z"/>
</g>
</svg>
