<?xml version="1.0" encoding="utf-8"?>
<!-- Generator: Adobe Illustrator 22.0.1, SVG Export Plug-In . SVG Version: 6.00 Build 0)  -->
<svg version="1.1" id="Layer_1" xmlns="http://www.w3.org/2000/svg" xmlns:xlink="http://www.w3.org/1999/xlink" x="0px" y="0px"
	 viewBox="0 0 150 150" style="enable-background:new 0 0 150 150;" xml:space="preserve">
<g>
	<path d="M75,0C33.6,0,0,33.6,0,75s33.6,75,75,75s75-33.6,75-75S116.4,0,75,0z M75,139.3c-35.5,0-64.3-28.8-64.3-64.3
		c0-35.5,28.8-64.3,64.3-64.3s64.3,28.8,64.3,64.3C139.3,110.5,110.5,139.3,75,139.3z"/>
	<path d="M117.4,45.2c-4-4-9.3-6.4-15-6.6c-5.4-0.3-10.7,1.4-15,4.7l-1.1-0.1c-3.2-0.4-10-1.1-11.6-1.3c-2.3-0.3-4.7,0.4-6.4,1.9
		L54.6,55.1c-2.2,1.8-3.8,4.3-4.5,7c-1.5,5.5-4.3,15.2-6.3,19.1l-6,6l-0.4-0.4c-0.6-0.6-1.5-1-2.4-1c-0.9,0-1.7,0.3-2.4,1l-5.7,5.7
		c-1.3,1.3-1.3,3.4,0,4.7l1.5,1.5c0.5,0.5,1.4,0.5,2,0c0.5-0.5,0.5-1.4,0-2l-1.5-1.5c-0.1-0.1-0.2-0.3-0.2-0.4c0-0.1,0-0.2,0.2-0.4
		l5.7-5.7c0.1-0.1,0.3-0.2,0.4-0.2c0.1,0,0.2,0,0.4,0.2l1.4,1.4c0,0,0,0,0,0l8.9,8.9l10.2,10.2c0.1,0.1,0.2,0.3,0.2,0.4
		s0,0.2-0.2,0.4l-5.7,5.7c-0.1,0.1-0.3,0.2-0.4,0.2s-0.2,0-0.4-0.2l-12.6-12.6c-0.5-0.5-1.4-0.5-2,0c-0.5,0.5-0.5,1.4,0,2l12.6,12.6
		c0.7,0.7,1.5,1,2.4,1c0.9,0,1.7-0.3,2.4-1l5.7-5.7c0.6-0.6,1-1.5,1-2.4c0-0.9-0.3-1.7-1-2.4l-0.4-0.4l0.9-0.9
		c0.8-0.8,1.7-1.3,2.7-1.6c0,0,0,0,0.1,0l10.3-3.5c3.5-1.2,6.5-3.4,8.8-6.3l5.2-6.5l13.8-13.8c0.7,0.1,1.4,0.2,2.2,0.2v1.1
		c0,0.4,0.4,0.8,1,0.8c0.5,0,1.1-0.4,1.1-0.8v-1.2c3.9-0.5,6.6-3,6.6-7.4c0-4.9-3.4-6.5-6.6-7.6v-7.3c2.5,0.2,3.5,1.3,4.3,1.3
		c1.1,0,1.6-1.4,1.6-2.1c0-1.8-3.5-2.5-5.9-2.6v-1c0-0.4-0.5-0.8-1.1-0.8c-0.6,0-1,0.4-1,0.8v1c-3.4,0.4-6.8,2.2-6.8,6.7
		c0,4.6,3.6,5.9,6.8,7.1v2.8c-1-1.2-2.6-1.9-4.7-2c-4.8-0.3-11.3,2.4-15,6c-2.3,2.3-5,5-6.4,6.4c-0.5,0.5-1.1,0.7-1.7,0.7h-0.1
		c-1,0-2.3-1-2.7-2.1l0-13.8l4.6-3.8l3.6-0.6c-0.7,3.2-0.7,6.6,0,9.9c0.1,0.7,0.7,1.1,1.4,1.1c0.1,0,0.2,0,0.3,0
		c0.8-0.2,1.2-0.9,1.1-1.7c-0.8-3.5-0.6-7.1,0.5-10.5c0,0,0,0,0,0c0,0,0,0,0,0c1-3,2.6-5.7,4.9-7.9c0.5-0.5,1-0.9,1.5-1.4
		c0,0,0,0,0,0c0,0,0,0,0,0c3.8-3.1,8.6-4.7,13.5-4.4c5,0.2,9.6,2.3,13.1,5.8c3.8,3.8,5.8,8.8,5.8,14.1s-2.1,10.3-5.8,14.1
		c-5,5-12.3,7-19.1,5.2c-0.8-0.2-1.5,0.3-1.7,1c-0.2,0.8,0.3,1.5,1,1.7c1.9,0.5,3.8,0.7,5.7,0.7c2,0,3.9-0.3,5.8-0.8
		c3.9-1,7.4-3.1,10.3-5.9c4.3-4.3,6.7-10,6.7-16.1C124,55.3,121.7,49.5,117.4,45.2z M103.2,63.5c1.8,0.8,3.2,1.8,3.2,4
		c0,2.1-1.2,3.2-3.2,3.6V63.5z M98.1,55.3c0-1.9,1.4-2.8,3.5-3v6.6C99.6,58.1,98.1,57.3,98.1,55.3z M91.6,77.9l-1.3-1.3
		c-0.2-0.2-0.4-0.6-0.4-0.9c0-0.3,0.1-0.7,0.4-0.9l2.3-2.3c0.7-0.7,1.7-1.1,2.7-1.1c0.8,0,1.5,0.2,2.2,0.7L91.6,77.9z M100.7,72.8
		L100.7,72.8L100.7,72.8L100.7,72.8L100.7,72.8z M79.9,53.4l-5.3,0.8c-0.2,0-0.5,0.1-0.7,0.3L68.5,59c-0.3,0.3-0.5,0.7-0.5,1.1
		l0,14.7c0,0.1,0,0.2,0,0.4c0.6,2.3,3.1,4.3,5.4,4.3h0.1c1.4,0,2.7-0.5,3.7-1.5c1.5-1.5,4.1-4.1,6.4-6.4c3.1-3.1,8.8-5.4,12.8-5.2
		c0.9,0,2.1,0.3,2.7,1c0,0,0.1,0.1,0.1,0.1c0.3,0.3,1.1,1.1,0.1,2.6c-2.6-2-6.4-1.9-8.7,0.5l-2.3,2.3c-0.8,0.8-1.2,1.8-1.2,2.9
		c0,1.1,0.4,2.1,1.2,2.9l1.3,1.3l-6.3,6.3c0,0-0.1,0.1-0.1,0.1L78,92.9c-2,2.5-4.6,4.3-7.5,5.3l-10.3,3.5c-1.5,0.4-2.8,1.2-3.9,2.3
		l-0.9,0.9l-7.9-7.9l-7.9-7.9l6.2-6.2c0.1-0.1,0.2-0.2,0.3-0.3c2.1-4,5-14.1,6.6-19.8c0.6-2.2,1.9-4.2,3.6-5.6l13.7-11.4
		c1.2-1,2.8-1.5,4.3-1.3c1.4,0.2,6.7,0.8,10.2,1.2C82.6,48,81,50.6,79.9,53.4z"/>
</g>
</svg>
