<?xml version="1.0" encoding="utf-8"?>
<!-- Generator: Adobe Illustrator 22.0.1, SVG Export Plug-In . SVG Version: 6.00 Build 0)  -->
<svg version="1.1" id="Layer_1" xmlns="http://www.w3.org/2000/svg" xmlns:xlink="http://www.w3.org/1999/xlink" x="0px" y="0px"
	 viewBox="0 0 150 150" style="enable-background:new 0 0 150 150;" xml:space="preserve">
<g>
	<path d="M75,0C33.6,0,0,33.6,0,75s33.6,75,75,75s75-33.6,75-75S116.4,0,75,0z M75,139.3c-35.5,0-64.3-28.8-64.3-64.3
		c0-35.5,28.8-64.3,64.3-64.3s64.3,28.8,64.3,64.3C139.3,110.5,110.5,139.3,75,139.3z"/>
	<path d="M88.7,39.9H53.3c-2.4,0-4.3,1.9-4.3,4.3v61.7c0,2.4,1.9,4.3,4.3,4.3h43.3c2.4,0,4.3-1.9,4.3-4.3V53.2L88.7,39.9z
		 M89.7,46.3l5.4,5.8h-5.4V46.3z M97.4,105.8c0,0.4-0.3,0.7-0.7,0.7H53.3c-0.4,0-0.7-0.3-0.7-0.7V44.2c0-0.4,0.3-0.7,0.7-0.7h32.8
		V54c0,1,0.8,1.8,1.8,1.8h9.4V105.8z M59,59.1h30.7c0.7,0,1.4,0.6,1.4,1.4c0,0.8-0.6,1.4-1.4,1.4H59c-0.8,0-1.4-0.6-1.4-1.4
		C57.7,59.7,58.3,59.1,59,59.1L59,59.1z M91.1,69.6c0,0.7-0.6,1.4-1.4,1.4H59c-0.8,0-1.4-0.6-1.4-1.4c0-0.8,0.6-1.4,1.4-1.4h30.7
		C90.5,68.2,91.1,68.8,91.1,69.6L91.1,69.6z M91.1,78.4c0,0.7-0.6,1.4-1.4,1.4H59c-0.8,0-1.4-0.6-1.4-1.4c0-0.8,0.6-1.4,1.4-1.4
		h30.7C90.5,77,91.1,77.6,91.1,78.4L91.1,78.4z M91.1,87.4c0,0.8-0.6,1.4-1.4,1.4H59c-0.8,0-1.4-0.6-1.4-1.4c0-0.7,0.6-1.4,1.4-1.4
		h30.7C90.5,86,91.1,86.6,91.1,87.4L91.1,87.4z M91.1,87.4"/>
</g>
</svg>
