<?xml version="1.0" encoding="utf-8"?>
<!-- Generator: Adobe Illustrator 22.0.1, SVG Export Plug-In . SVG Version: 6.00 Build 0)  -->
<svg version="1.1" id="Layer_1" xmlns="http://www.w3.org/2000/svg" xmlns:xlink="http://www.w3.org/1999/xlink" x="0px" y="0px"
	 viewBox="0 0 150 150" style="enable-background:new 0 0 150 150;" xml:space="preserve">
<g>
	<path d="M75,0C33.6,0,0,33.6,0,75s33.6,75,75,75s75-33.6,75-75S116.4,0,75,0z M75,139.3c-35.5,0-64.3-28.8-64.3-64.3
		c0-35.5,28.8-64.3,64.3-64.3s64.3,28.8,64.3,64.3C139.3,110.5,110.5,139.3,75,139.3z"/>
	<path d="M97.6,48.2c-0.9-4.8-5.1-8.4-10.1-8.4h-4.1c-5.7,0-10.3,4.6-10.3,10.3s4.6,10.3,10.3,10.3h2.4c0.9,2.4,3.1,4.1,5.8,4.1h8.2
		c2.6,0,5,1.8,5.8,4.3c-1.6,0-32.6,0-33.9,0L43.4,40.4c-0.8-0.8-2.1-0.8-2.9,0s-0.8,2.1,0,2.9l25.5,25.5c-0.8,0-19,0-19.9,0
		c-3.4,0-6.2,2.8-6.2,6.2v4.1c0,3.4,2.8,6.2,6.2,6.2c1.3,0,35,0,36.4,0l24.3,24.3c0.4,0.4,0.9,0.6,1.5,0.6c0.5,0,1.1-0.2,1.5-0.6
		c0.8-0.8,0.8-2.1,0-2.9L88.2,85.3c0.8,0,19,0,19.9,0c1.1,0,2.1-0.9,2.1-2.1V70.9v-8.4C110.2,55.2,104.7,49.1,97.6,48.2z M99.9,60.4
		h-8.2c-1.1,0-2.1-0.9-2.1-2.1c0-1.1-0.9-2.1-2.1-2.1h-4.1c-3.4,0-6.2-2.8-6.2-6.2S80,44,83.4,44h4.1c3.4,0,6.2,2.8,6.2,6.2
		c0,1.1,0.9,2.1,2.1,2.1c5.7,0,10.3,4.6,10.3,10.3v0C104.3,61.2,102.1,60.4,99.9,60.4z M44,79.1V75c0-1.1,0.9-2.1,2.1-2.1h14.6v8.2
		H46C44.9,81.2,44,80.3,44,79.1z M64.7,81.2v-8.2H70l8.2,8.2H64.7z M75.9,72.9h21.9v8.2H84.1L75.9,72.9z M106,81.2h-4.1v-8.2h4.1
		V81.2z"/>
</g>
</svg>
