<?xml version="1.0" encoding="utf-8"?>
<!-- Generator: Adobe Illustrator 22.0.1, SVG Export Plug-In . SVG Version: 6.00 Build 0)  -->
<svg version="1.1" id="Layer_1" xmlns="http://www.w3.org/2000/svg" xmlns:xlink="http://www.w3.org/1999/xlink" x="0px" y="0px"
	 width="200px" height="200px" viewBox="0 0 200 200" enable-background="new 0 0 200 200" xml:space="preserve">
<path fill="#272727" d="M191.7,61.7c-6-3.2-13.4-2.4-18.6,2.1c-1.1,0.9-2.1,1.9-3.3,2.7c-5.2,3.2-10.7,1.8-13.8-3.4
	c-1.9-3.3-2.4-6.8-2.4-10.5c0-13.9,0-27.9,0-41.8c0-5.3-0.1-5.4-5.5-5.4c-18.5,0-37,0-55.5,0c-1.2,0-41.3,0.1-44.1,0.1
	C33.7,5.4,18.9,5.5,4,5.4c-3,0-3.8,1.3-3.8,4c0.1,14.6,0,29.2,0.1,43.7C0.4,60.3,0,86.5,0,91.6c0.1,10,0.2,20,0.2,30.1
	c0,6.2,0.2,12.5-0.1,18.7c-0.2,3.9,1.1,5.3,5.1,5.2c12.8-0.2,25.5-0.1,38.3-0.1c4.9,0,9.6,0.8,14.1,2.8c6.3,2.7,7.6,7.6,3.6,13.2
	c-0.8,1.2-1.8,2.2-2.7,3.3c-8,10.1-4.1,23.8,7.9,28.5c0.1,0.1,0.3,0.1,0.4,0.2c1.7,0.7,3.6,1.1,5.5,1.1h1.2c1.8,0,3.6-0.4,5.3-1
	c0,0,0,0,0,0c12.1-4.6,16.2-17.3,9.1-28.1c-1.4-2.2-3.1-4.2-4.3-6.5c-3-5.8-1.5-9.4,4.7-11.4c4.6-1.5,9.4-2,14.2-2.1
	c14.7-0.2,29.4,0.2,44.1,0.6c7.2,0.2,7.3,0.1,7.1-7.3c-0.4-12.3-2-24.6-1.5-37c0.1-3.7,0.4-7.3,1.3-10.8c1.9-7.7,8.3-10.6,15.2-6.8
	c2.4,1.3,4.8,2.8,6.8,4.6c10.7,9.6,23-0.8,24.4-10.6C200.8,71.6,197.3,64.8,191.7,61.7z"/>
</svg>
