<?xml version="1.0" encoding="utf-8"?>
<!-- Generator: Adobe Illustrator 22.0.1, SVG Export Plug-In . SVG Version: 6.00 Build 0)  -->
<svg version="1.1" id="Layer_1" xmlns="http://www.w3.org/2000/svg" xmlns:xlink="http://www.w3.org/1999/xlink" x="0px" y="0px"
	 width="200px" height="200px" viewBox="0 0 200 200" enable-background="new 0 0 200 200" xml:space="preserve">
<g>
	<path fill="none" d="M130.5,73.1V58.9c0-13.2-10.7-24-23.8-24H33.2c-13.1,0-23.8,10.8-23.8,24v82.5c0,13.2,10.7,24,23.8,24h73.5
		c13.1,0,23.8-10.8,23.8-24v-14.3c0-6.7,7.2-11.2,13.1-7.9l46.7,24.6V56l-46.1,24.6C138,84.1,130.5,80.5,130.5,73.1z"/>
	<path fill="#272727" d="M187.1,46.9l-46.9,25v-13c0-9.4-3.2-17.3-9.9-24c-6.6-6.5-14.5-9.8-23.6-9.8H33.2c-9.1,0-16.9,3.3-23.4,9.8
		C3.2,41.6,0,49.5,0,58.9v82.5c0,9.2,3.2,17.1,9.9,23.8c6.4,6.5,14.3,9.8,23.4,9.8h73.5c9.1,0,16.9-3.2,23.6-9.8
		c6.7-6.7,9.9-14.7,9.9-23.8v-13.2l46.9,24.8c5.8,3.3,12.9-1.4,12.9-7.9V55C200,48.3,192.9,43.8,187.1,46.9z M190.3,143.8
		l-46.7-24.6c-5.8-3.3-13.1,1.2-13.1,7.9v14.3c0,13.2-10.7,24-23.8,24H33.2c-13.1,0-23.8-10.8-23.8-24V58.9c0-13.2,10.7-24,23.8-24
		h73.5c13.1,0,23.8,10.8,23.8,24v14.3c0,7.3,7.4,11,13.7,7.5L190.3,56V143.8z"/>
</g>
</svg>
