<?xml version="1.0" encoding="utf-8"?>
<!-- Generator: Adobe Illustrator 22.0.1, SVG Export Plug-In . SVG Version: 6.00 Build 0)  -->
<svg version="1.1" id="Layer_1" xmlns="http://www.w3.org/2000/svg" xmlns:xlink="http://www.w3.org/1999/xlink" x="0px" y="0px"
	 width="200px" height="200px" viewBox="0 0 200 200" enable-background="new 0 0 200 200" xml:space="preserve">
<g>
	<path fill="none" d="M10.3,85.7h75.3V10.3c-20.4,1.3-37.5,9-51.9,23.4C19.3,48.1,11.6,65.3,10.3,85.7z"/>
	<path fill="#272727" d="M95.7,86.6V9.5c0-5.4-4.5-9.7-9.9-9.5C62.7,1.3,42.9,10.1,26.4,26.4C9.9,43,1.1,62.7,0,85.9
		C-0.2,91.3,4.1,96,9.4,96h76.8C91.6,96,95.7,91.7,95.7,86.6z M85.6,85.7H10.3c1.3-20.4,9-37.6,23.4-52
		c14.4-14.4,31.5-22.1,51.9-23.4V85.7z"/>
	<path fill="#272727" d="M175.3,46.8c-16.5-17.6-36.9-27.1-60.7-28.6c-1.9-0.2-3,0.6-3,2.6l-0.2,4.7c-0.2,1.9,0.6,2.8,2.6,2.8
		c21.2,1.5,39.3,9.9,54.1,25.6c14.6,15.7,21.9,33.9,21.9,55.2c0,22.1-7.9,41.2-23.6,57.1c-15.9,15.7-35,23.6-57.1,23.6
		c-21,0-39.3-7.3-54.7-21.7c-15.7-14.6-24.2-32.4-25.8-53.5c-0.2-1.7-1.1-2.6-3-2.6l-4.7,0.4c-1.9,0-2.8,1.1-2.6,3
		c1.9,23.6,11.6,43.6,29,59.9c17.4,16.3,38,24.5,61.8,24.5c25.1,0,46.4-8.8,64.2-26.4c17.8-17.8,26.6-39.3,26.6-64.4
		C200,85.3,191.8,64.5,175.3,46.8z"/>
</g>
</svg>
