<?xml version="1.0" encoding="utf-8"?>
<!-- Generator: Adobe Illustrator 22.0.1, SVG Export Plug-In . SVG Version: 6.00 Build 0)  -->
<svg version="1.1" id="Layer_1" xmlns="http://www.w3.org/2000/svg" xmlns:xlink="http://www.w3.org/1999/xlink" x="0px" y="0px"
	 width="200px" height="200px" viewBox="0 0 200 200" enable-background="new 0 0 200 200" xml:space="preserve">
<g>
	<path fill="none" d="M10.6,158.5l83.9,26.6v-145L10.6,13.5V158.5z M78.9,151.8c0,2.1-1.3,3-4.1,2.3l-48.2-15.6
		c-1.6-0.5-2.3-1.6-2-3.7l0.2-4.8c0.2-2.1,1.4-3,3.6-2.3l48,15.4c2,0.7,2.9,2.1,2.9,4.1L78.9,151.8z M78.9,115.8
		c0,2.1-2.2,3-4.1,2.1l-48.2-15.4c-1.6-0.5-2.3-1.8-2-3.9l0.2-4.8c0.2-2.1,1.4-2.7,3.6-2.3l48,15.6c2,0.7,2.9,2.1,2.9,4.1
		L78.9,115.8z M24.6,64.2l0.2-4.8c0.2-2.1,1.4-3,3.6-2.3l48,15.6c2,0.7,2.9,1.8,2.9,3.9l-0.4,4.8c0,2.1-2.2,3-4.1,2.1L26.6,67.9
		C24.6,67.2,24.4,66.7,24.6,64.2z"/>
	<path fill="none" d="M105.3,185.1l83.9-26.6v-145l-83.9,26.6V185.1z M122.7,72.7l48.3-15.6c2-0.7,3.1,0,3.4,2.3l0.2,4.8
		c0.2,2.1-0.5,3.2-1.8,3.7l-48.5,15.6c-1.8,0.9-4.1,0-4.1-2.1l-0.2-4.8C119.7,74.5,120.6,73.4,122.7,72.7z M122.7,107.1l48.3-15.6
		c2-0.5,3.1,0.2,3.4,2.3l0.2,4.8c0.2,2.1-0.5,3.4-1.8,3.9l-48.5,15.4c-1.8,0.9-4.1,0-4.1-2.1l-0.2-4.6
		C119.7,109.2,120.6,107.8,122.7,107.1z M122.7,143.1l48.3-15.4c2-0.7,3.1,0,3.4,2.3l0.2,4.8c0.2,2.1-0.5,3.2-1.8,3.7l-48.5,15.6
		c-2.7,0.7-4.1-0.2-4.1-2.3l-0.2-4.6C119.7,145.2,120.6,143.8,122.7,143.1z"/>
	<path fill="#272727" d="M76.4,107.1l-48-15.6c-2.2-0.5-3.4,0.2-3.6,2.3l-0.2,4.8c-0.2,2.1,0.5,3.4,2,3.9l48.2,15.4
		c1.8,0.9,4.1,0,4.1-2.1l0.4-4.6C79.4,109.2,78.5,107.8,76.4,107.1z"/>
	<path fill="#272727" d="M26.6,67.9l48.2,15.6c1.8,0.9,4.1,0,4.1-2.1l0.4-4.8c0-2.1-0.9-3.2-2.9-3.9l-48-15.6
		c-2.2-0.7-3.4,0.2-3.6,2.3l-0.2,4.8C24.4,66.7,24.6,67.2,26.6,67.9z"/>
	<path fill="#272727" d="M76.4,143.1l-48-15.4c-2.2-0.7-3.4,0.2-3.6,2.3l-0.2,4.8c-0.2,2.1,0.5,3.2,2,3.7l48.2,15.6
		c2.7,0.7,4.1-0.2,4.1-2.3l0.4-4.6C79.4,145.2,78.5,143.8,76.4,143.1z"/>
	<path fill="#272727" d="M186.9,2.7l-87,27.5l-87-27.5C6.5,0.7,0,5.7,0,12.4v146.6c0,5.3,2.3,8.5,7,9.6l90,28.7c2,0.7,3.8,0.7,5.9,0
		l90.2-28.7c4.7-1.4,7-4.6,7-9.6V12.4C200,5.7,193.5,0.7,186.9,2.7z M94.5,185.1l-83.9-26.6v-145l83.9,26.6V185.1z M189.2,158.5
		l-83.9,26.6v-145l83.9-26.6V158.5z"/>
	<path fill="#272727" d="M120.2,151.8c0,2.1,1.4,3,4.1,2.3l48.5-15.6c1.3-0.5,2-1.6,1.8-3.7l-0.2-4.8c-0.2-2.3-1.4-3-3.4-2.3
		l-48.3,15.4c-2,0.7-2.9,2.1-2.7,4.1L120.2,151.8z"/>
	<path fill="#272727" d="M120.2,81.4c0,2.1,2.3,3,4.1,2.1l48.5-15.6c1.3-0.5,2-1.6,1.8-3.7l-0.2-4.8c-0.2-2.3-1.4-3-3.4-2.3
		l-48.3,15.6c-2,0.7-2.9,1.8-2.7,3.9L120.2,81.4z"/>
	<path fill="#272727" d="M120.2,115.8c0,2.1,2.3,3,4.1,2.1l48.5-15.4c1.3-0.5,2-1.8,1.8-3.9l-0.2-4.8c-0.2-2.1-1.4-2.7-3.4-2.3
		l-48.3,15.6c-2,0.7-2.9,2.1-2.7,4.1L120.2,115.8z"/>
</g>
</svg>
