<?xml version="1.0" encoding="utf-8"?>
<!-- Generator: Adobe Illustrator 22.0.1, SVG Export Plug-In . SVG Version: 6.00 Build 0)  -->
<svg version="1.1" id="Layer_1" xmlns="http://www.w3.org/2000/svg" xmlns:xlink="http://www.w3.org/1999/xlink" x="0px" y="0px"
	 width="200px" height="200px" viewBox="0 0 200 200" enable-background="new 0 0 200 200" xml:space="preserve">
<g>
	<path fill="none" d="M145.5,29c-12.8-12.6-27.8-18.9-45.6-18.9C82.1,10.1,67,16.4,54.5,29C41.9,41.6,35.6,56.7,35.6,74.6
		c0,13.9,3.6,26.3,10.9,37l53.2,78l52.5-77.1c8.2-12,12.1-24.6,12.1-37.8C164.4,56.7,158.1,41.6,145.5,29z M125.4,100.2
		c-7.1,7.2-15.7,10.7-25.5,10.7c-9.8,0-18.4-3.6-25.3-10.7c-7.1-7.1-10.7-15.8-10.7-25.6c0-9.9,3.6-18.5,10.7-25.6
		c6.9-6.9,15.5-10.5,25.3-10.5c9.8,0,18.4,3.6,25.5,10.5c7.1,7.1,10.7,15.8,10.7,25.6C136.1,84.5,132.6,93.1,125.4,100.2z"/>
	<path fill="none" d="M99.9,48.5c-7.1,0-13.2,2.5-18.2,7.6c-5.2,5.3-7.7,11.4-7.7,18.5c0,7.3,2.5,13.4,7.7,18.5
		c5,5.3,11.1,7.8,18.2,7.8c7.3,0,13.4-2.5,18.6-7.8c5-5,7.5-11.1,7.5-18.5c0-7.1-2.5-13.2-7.5-18.5C113.3,51.1,107.2,48.5,99.9,48.5
		z"/>
	<path fill="#272727" d="M99.9,38.5c-9.8,0-18.4,3.6-25.3,10.5c-7.1,7.1-10.7,15.8-10.7,25.6c0,9.9,3.6,18.5,10.7,25.6
		c6.9,7.2,15.5,10.7,25.3,10.7c9.8,0,18.4-3.6,25.5-10.7c7.1-7.1,10.7-15.8,10.7-25.6c0-9.9-3.6-18.5-10.7-25.6
		C118.3,42,109.7,38.5,99.9,38.5z M118.5,93.1c-5.2,5.3-11.3,7.8-18.6,7.8c-7.1,0-13.2-2.5-18.2-7.8c-5.2-5-7.7-11.1-7.7-18.5
		c0-7.1,2.5-13.2,7.7-18.5c5-5,11.1-7.6,18.2-7.6c7.3,0,13.4,2.5,18.6,7.6c5,5.3,7.5,11.4,7.5,18.5C126.1,82,123.6,88.1,118.5,93.1z
		"/>
	<path fill="#272727" d="M152.6,21.9C138.2,7.4,120.6,0,99.9,0C79.4,0,61.8,7.4,47.4,21.9C32.9,36.4,25.6,54,25.6,74.6
		c0,16,4.2,30,12.8,42.4l53.8,79c3.6,5.3,11.7,5.3,15.3,0l53.2-78.2c9.2-13.7,13.8-28,13.8-43.3C174.4,54,167.1,36.4,152.6,21.9z
		 M152.2,112.4l-52.5,77.1l-53.2-78c-7.3-10.7-10.9-23.1-10.9-37c0-17.9,6.3-33,18.8-45.6C67,16.4,82.1,10.1,99.9,10.1
		c17.8,0,32.9,6.3,45.6,18.9c12.6,12.6,18.8,27.7,18.8,45.6C164.4,87.8,160.4,100.4,152.2,112.4z"/>
</g>
</svg>
