<?xml version="1.0" encoding="utf-8"?>
<!-- Generator: Adobe Illustrator 22.0.1, SVG Export Plug-In . SVG Version: 6.00 Build 0)  -->
<svg version="1.1" id="Layer_1" xmlns="http://www.w3.org/2000/svg" xmlns:xlink="http://www.w3.org/1999/xlink" x="0px" y="0px"
	 width="200px" height="200px" viewBox="0 0 200 200" enable-background="new 0 0 200 200" xml:space="preserve">
<g>
	<path fill="#272727" d="M145.6,65.5c-2.1-5.1-6-9.1-11.1-11.1c-7.7-3-26-2.4-34.5-2.4s-26.8-0.7-34.5,2.4c-5.1,2.1-9.1,6-11.1,11.1
		c-3,7.7-2.4,26-2.4,34.5c0,8.5-0.7,26.8,2.4,34.5c2.1,5.1,6,9.1,11.1,11.1c7.7,3,26,2.4,34.5,2.4s26.8,0.7,34.5-2.4
		c5.1-2.1,9.1-6,11.1-11.1c3.1-7.7,2.4-26,2.4-34.5C148,91.5,148.7,73.2,145.6,65.5z M100,130c-16.6,0-30-13.4-30-30
		c0-16.6,13.4-30,30-30s30,13.4,30,30C130,116.6,116.6,130,100,130z M131.3,75.8c-3.9,0-7-3.1-7-7s3.1-7,7-7s7,3.1,7,7
		C138.3,72.7,135.1,75.8,131.3,75.8z"/>
	<circle fill="#272727" cx="100" cy="100" r="19.5"/>
	<path fill="#272727" d="M100,0C44.8,0,0,44.8,0,100c0,55.2,44.8,100,100,100s100-44.8,100-100C200,44.8,155.2,0,100,0z
		 M158.1,124.1c-0.5,9.4-2.6,17.7-9.5,24.5c-6.8,6.9-15.1,9-24.5,9.5c-9.7,0.5-38.6,0.5-48.3,0c-9.4-0.5-17.7-2.6-24.5-9.5
		c-6.9-6.8-9-15.1-9.5-24.5c-0.5-9.7-0.5-38.6,0-48.3c0.5-9.4,2.6-17.7,9.5-24.5c6.9-6.8,15.2-9,24.5-9.4c9.7-0.5,38.6-0.5,48.3,0
		c9.4,0.5,17.7,2.6,24.5,9.5c6.9,6.8,9,15.1,9.5,24.5C158.7,85.5,158.7,114.5,158.1,124.1z"/>
</g>
</svg>
