<?xml version="1.0" encoding="utf-8"?>
<!-- Generator: Adobe Illustrator 22.0.1, SVG Export Plug-In . SVG Version: 6.00 Build 0)  -->
<svg version="1.1" id="Layer_1" xmlns="http://www.w3.org/2000/svg" xmlns:xlink="http://www.w3.org/1999/xlink" x="0px" y="0px"
	 width="200px" height="200px" viewBox="0 0 200 200" enable-background="new 0 0 200 200" xml:space="preserve">
<path fill="#272727" d="M100.1,0.1C44.8,0.1,0,44.7,0,100s44.8,99.9,100.1,99.9c55.1,0,99.9-44.7,99.9-99.9S155.2,0.1,100.1,0.1z
	 M125,66.6c0,0-7.7,0-11.2,0c-4.5,0-5.5,1.8-5.5,6.6c0,3.8,0,10.1,0,10.1H125l-1.7,16.7h-15v58.3h-25V100H66.7V83.3h16.7
	c0,0,0-6.3,0-19.2c0-14.7,7.7-22.4,25.2-22.4c2.9,0,16.4,0,16.4,0V66.6z"/>
</svg>
