<?xml version="1.0" encoding="utf-8"?>
<!-- Generator: Adobe Illustrator 22.0.1, SVG Export Plug-In . SVG Version: 6.00 Build 0)  -->
<svg version="1.1" id="Layer_1" xmlns="http://www.w3.org/2000/svg" xmlns:xlink="http://www.w3.org/1999/xlink" x="0px" y="0px"
	 width="200px" height="200px" viewBox="0 0 200 200" enable-background="new 0 0 200 200" xml:space="preserve">
<path fill="#272727" d="M100.1,0.1C44.8,0.1,0,44.7,0,100c0,55.1,44.8,99.9,100.1,99.9c55.1,0,99.9-44.8,99.9-99.9
	C200,44.7,155.2,0.1,100.1,0.1z M139.7,61.7l-26.5,75.7c-0.5,1.5-1.5,2.3-3,2.3c-1.6,0.1-2.8-0.6-3.4-1.9l-9.1-19.1l-19,21.4
	c-0.6,0.7-1.5,1.2-2.4,1.2c-1,0-1.8-0.2-2.6-0.9l-7.9-7.1c-0.7-0.6-1.2-1.5-1.2-2.4c-0.1-1,0.2-1.8,0.9-2.6l18-20.3l-23.1-8.2
	c-0.9-0.2-1.6-0.9-1.9-1.7c-0.2-0.5-0.4-0.9-0.4-1.3c-0.1-1.6,0.6-2.8,1.9-3.4l75-36c1.5-0.7,2.8-0.5,3.9,0.5
	c0.4,0.4,0.7,0.7,0.9,1.1C140.1,60,140.1,60.8,139.7,61.7z"/>
</svg>
